<svg width="32" height="32" viewBox="0 0 32 32" fill="none" xmlns="http://www.w3.org/2000/svg">
<path d="M15.276 10.7599L4.65601 21.9059C4.47872 22.0919 4.37982 22.339 4.37982 22.5959C4.37982 22.8528 4.47872 23.0999 4.65601 23.2859L4.66801 23.2979C4.75396 23.3884 4.85741 23.4604 4.97208 23.5096C5.08674 23.5589 5.21023 23.5843 5.33501 23.5843C5.4598 23.5843 5.58328 23.5589 5.69795 23.5096C5.81261 23.4604 5.91607 23.3884 6.00201 23.2979L16.002 12.8019L25.998 23.2979C26.084 23.3884 26.1874 23.4604 26.3021 23.5096C26.4167 23.5589 26.5402 23.5843 26.665 23.5843C26.7898 23.5843 26.9133 23.5589 27.0279 23.5096C27.1426 23.4604 27.2461 23.3884 27.332 23.2979L27.344 23.2859C27.5213 23.0999 27.6202 22.8528 27.6202 22.5959C27.6202 22.339 27.5213 22.0919 27.344 21.9059L16.724 10.7599C16.6306 10.6619 16.5183 10.5838 16.3938 10.5305C16.2694 10.4772 16.1354 10.4497 16 10.4497C15.8646 10.4497 15.7306 10.4772 15.6062 10.5305C15.4817 10.5838 15.3694 10.6619 15.276 10.7599Z" fill="white"/>
</svg>
