<svg width="32" height="32" viewBox="0 0 32 32" fill="none" xmlns="http://www.w3.org/2000/svg">
<path d="M5.33331 26.6666H4.33331C4.33331 26.9318 4.43867 27.1861 4.62621 27.3737C4.81375 27.5612 5.0681 27.6666 5.33332 27.6666L5.33331 26.6666ZM5.33331 21.3332L4.62621 20.6261C4.43867 20.8137 4.33331 21.068 4.33331 21.3332H5.33331ZM19.8248 6.84171L19.1177 6.1346L19.1177 6.1346L19.8248 6.84171ZM22.8418 6.84171L22.1347 7.54881V7.54881L22.8418 6.84171ZM25.1581 9.15805L25.8652 8.45095L25.1581 9.15805ZM25.1582 12.175L24.451 11.4679V11.4679L25.1582 12.175ZM10.6666 26.6665L10.6667 27.6665C10.9319 27.6665 11.1862 27.5612 11.3738 27.3737L10.6666 26.6665ZM26.0491 10.2546L27.0002 9.94557L26.0491 10.2546ZM26.0491 11.0785L25.0981 10.7695V10.7695L26.0491 11.0785ZM20.9213 5.95076L20.6123 4.9997V4.9997L20.9213 5.95076ZM21.7454 5.95076L22.0544 4.9997L21.7454 5.95076ZM16.7071 9.95947C16.3166 9.56895 15.6834 9.56895 15.2929 9.95947C14.9023 10.35 14.9023 10.9832 15.2929 11.3737L16.7071 9.95947ZM20.6262 16.707C21.0167 17.0975 21.6499 17.0975 22.0404 16.707C22.4309 16.3165 22.4309 15.6833 22.0404 15.2928L20.6262 16.707ZM6.33331 26.6666V21.3332H4.33331V26.6666H6.33331ZM6.04042 22.0403L20.5319 7.54881L19.1177 6.1346L4.62621 20.6261L6.04042 22.0403ZM22.1347 7.54881L24.451 9.86516L25.8652 8.45095L23.5489 6.1346L22.1347 7.54881ZM24.451 11.4679L9.95954 25.9594L11.3738 27.3737L25.8653 12.8821L24.451 11.4679ZM10.6666 25.6665L5.33331 25.6666L5.33332 27.6666L10.6667 27.6665L10.6666 25.6665ZM24.451 9.86516C24.7267 10.1408 24.8904 10.3056 25.0022 10.4373C25.1065 10.5601 25.1057 10.587 25.0981 10.5636L27.0002 9.94557C26.8937 9.61778 26.7114 9.36033 26.5269 9.14298C26.3499 8.93453 26.1176 8.70329 25.8652 8.45095L24.451 9.86516ZM25.8653 12.8821C26.1176 12.6298 26.3499 12.3986 26.5269 12.1901C26.7114 11.9727 26.8937 11.7153 27.0002 11.3875L25.0981 10.7695C25.1057 10.7462 25.1064 10.773 25.0022 10.8958C24.8904 11.0275 24.7267 11.1923 24.451 11.4679L25.8653 12.8821ZM25.0981 10.5636C25.1198 10.6306 25.1198 10.7026 25.0981 10.7695L27.0002 11.3875C27.1525 10.9189 27.1525 10.4142 27.0002 9.94557L25.0981 10.5636ZM20.5319 7.54881C20.8076 7.27315 20.9724 7.10946 21.1041 6.99767C21.2268 6.89346 21.2537 6.89424 21.2303 6.90181L20.6123 4.9997C20.2845 5.10619 20.0271 5.28844 19.8098 5.47296C19.6013 5.64991 19.3701 5.88224 19.1177 6.1346L20.5319 7.54881ZM23.5489 6.1346C23.2966 5.8823 23.0654 5.64996 22.857 5.47303C22.6397 5.28851 22.3823 5.10622 22.0544 4.9997L21.4364 6.90181C21.413 6.89421 21.4398 6.89339 21.5625 6.9976C21.6942 7.10942 21.859 7.27309 22.1347 7.54881L23.5489 6.1346ZM21.2303 6.90181C21.2973 6.88006 21.3695 6.88006 21.4364 6.90181L22.0544 4.9997C21.5858 4.84743 21.0809 4.84743 20.6123 4.9997L21.2303 6.90181ZM15.2929 11.3737L20.6262 16.707L22.0404 15.2928L16.7071 9.95947L15.2929 11.3737Z" fill="white"/>
</svg>
