<svg width="32" height="32" viewBox="0 0 32 32" fill="none" xmlns="http://www.w3.org/2000/svg">
<path d="M15.6667 6C15.9319 6 16.1862 6.10536 16.3738 6.29289C16.5613 6.48043 16.6667 6.73478 16.6667 7V14.6667H24.3333C24.5986 14.6667 24.8529 14.772 25.0404 14.9596C25.228 15.1471 25.3333 15.4015 25.3333 15.6667C25.3333 15.9319 25.228 16.1862 25.0404 16.3738C24.8529 16.5613 24.5986 16.6667 24.3333 16.6667H16.6667V24.3333C16.6667 24.5986 16.5613 24.8529 16.3738 25.0404C16.1862 25.228 15.9319 25.3333 15.6667 25.3333C15.4015 25.3333 15.1471 25.228 14.9596 25.0404C14.772 24.8529 14.6667 24.5986 14.6667 24.3333V16.6667H7C6.73478 16.6667 6.48043 16.5613 6.29289 16.3738C6.10536 16.1862 6 15.9319 6 15.6667C6 15.4015 6.10536 15.1471 6.29289 14.9596C6.48043 14.772 6.73478 14.6667 7 14.6667H14.6667V7C14.6667 6.73478 14.772 6.48043 14.9596 6.29289C15.1471 6.10536 15.4015 6 15.6667 6Z" fill="white"/>
</svg>
