<svg width="32" height="33" viewBox="0 0 32 33" fill="none" xmlns="http://www.w3.org/2000/svg">
<path d="M21.3627 8.50931C21.6578 9.0158 22.1117 9.41093 22.654 9.63355C23.1963 9.85618 23.7968 9.89391 24.3627 9.74089C24.9286 9.58788 25.4283 9.25266 25.7845 8.78709C26.1408 8.32151 26.3336 7.75153 26.3333 7.16531C26.3331 6.75588 26.2387 6.352 26.0572 5.98496C25.8758 5.61793 25.6123 5.2976 25.2871 5.0488C24.9619 4.80001 24.5838 4.62943 24.1821 4.55029C23.7804 4.47115 23.3659 4.48557 22.9706 4.59244C22.5754 4.69931 22.2101 4.89575 21.903 5.16654C21.5959 5.43733 21.3553 5.7752 21.1998 6.15395C21.0443 6.53271 20.9781 6.94219 21.0064 7.35064C21.0346 7.7591 21.1565 8.15556 21.3627 8.50931ZM21.3627 8.50931L9.97067 15.1546M9.97067 15.1546C9.67618 14.6471 9.22244 14.251 8.67983 14.0276C8.13723 13.8043 7.53608 13.7662 6.96965 13.9194C6.40321 14.0725 5.90315 14.4083 5.54702 14.8747C5.1909 15.341 4.99862 15.9119 5.00001 16.4986C4.99971 17.0849 5.19259 17.6548 5.54881 18.1204C5.90503 18.586 6.40474 18.9212 6.97064 19.0742C7.53654 19.2272 8.13709 19.1895 8.67939 18.9669C9.22169 18.7443 9.67552 18.3491 9.97067 17.8426M9.97067 15.1546C10.2087 15.5626 10.3341 16.0264 10.3341 16.4986C10.3341 16.9709 10.2087 17.4347 9.97067 17.8426M9.97067 17.8426L21.3627 24.488M21.3627 24.488C21.6572 23.9805 22.1109 23.5843 22.6535 23.361C23.1961 23.1376 23.7973 23.0996 24.3637 23.2527C24.9301 23.4059 25.4302 23.7417 25.7863 24.208C26.1425 24.6744 26.3347 25.2452 26.3333 25.832C26.3331 26.2414 26.2387 26.6453 26.0572 27.0123C25.8758 27.3794 25.6123 27.6997 25.2871 27.9485C24.9619 28.1973 24.5838 28.3679 24.1821 28.447C23.7804 28.5261 23.3659 28.5117 22.9706 28.4048C22.5754 28.298 22.2101 28.1015 21.903 27.8308C21.5959 27.56 21.3553 27.2221 21.1998 26.8433C21.0443 26.4646 20.9781 26.0551 21.0064 25.6466C21.0346 25.2382 21.1565 24.8417 21.3627 24.488Z" stroke="white" stroke-width="2" stroke-linecap="round" stroke-linejoin="round"/>
</svg>
