<svg width="32" height="32" viewBox="0 0 32 32" fill="none" xmlns="http://www.w3.org/2000/svg">
<path d="M21.3627 8.00931C21.6578 8.5158 22.1117 8.91093 22.654 9.13355C23.1963 9.35618 23.7968 9.39391 24.3627 9.24089C24.9286 9.08788 25.4283 8.75266 25.7845 8.28709C26.1408 7.82151 26.3336 7.25153 26.3333 6.66531C26.3331 6.25588 26.2387 5.852 26.0572 5.48496C25.8758 5.11793 25.6123 4.7976 25.2871 4.5488C24.9619 4.30001 24.5838 4.12943 24.1821 4.05029C23.7804 3.97115 23.3659 3.98557 22.9706 4.09244C22.5754 4.19931 22.2101 4.39575 21.903 4.66654C21.5959 4.93733 21.3553 5.2752 21.1998 5.65395C21.0443 6.03271 20.9781 6.44219 21.0064 6.85064C21.0346 7.2591 21.1565 7.65556 21.3627 8.00931ZM21.3627 8.00931L9.97067 14.6546M9.97067 14.6546C9.67618 14.1471 9.22244 13.751 8.67983 13.5276C8.13723 13.3043 7.53608 13.2662 6.96965 13.4194C6.40321 13.5725 5.90315 13.9083 5.54702 14.3747C5.1909 14.841 4.99862 15.4119 5.00001 15.9986C4.99971 16.5849 5.19259 17.1548 5.54881 17.6204C5.90503 18.086 6.40474 18.4212 6.97064 18.5742C7.53654 18.7272 8.13709 18.6895 8.67939 18.4669C9.22169 18.2443 9.67552 17.8491 9.97067 17.3426M9.97067 14.6546C10.2087 15.0626 10.3341 15.5264 10.3341 15.9986C10.3341 16.4709 10.2087 16.9347 9.97067 17.3426M9.97067 17.3426L21.3627 23.988M21.3627 23.988C21.6572 23.4805 22.1109 23.0843 22.6535 22.861C23.1961 22.6376 23.7973 22.5996 24.3637 22.7527C24.9301 22.9059 25.4302 23.2417 25.7863 23.708C26.1425 24.1744 26.3347 24.7452 26.3333 25.332C26.3331 25.7414 26.2387 26.1453 26.0572 26.5123C25.8758 26.8794 25.6123 27.1997 25.2871 27.4485C24.9619 27.6973 24.5838 27.8679 24.1821 27.947C23.7804 28.0261 23.3659 28.0117 22.9706 27.9048C22.5754 27.798 22.2101 27.6015 21.903 27.3308C21.5959 27.06 21.3553 26.7221 21.1998 26.3433C21.0443 25.9646 20.9781 25.5551 21.0064 25.1466C21.0346 24.7382 21.1565 24.3417 21.3627 23.988Z" stroke="white" stroke-width="2" stroke-linecap="round" stroke-linejoin="round"/>
</svg>
