<svg width="32" height="32" viewBox="0 0 32 32" fill="none" xmlns="http://www.w3.org/2000/svg">
<path d="M16.2674 24.2167L16.0005 24.0478L15.7334 24.2162L9.52558 28.1292L9.52468 28.1297C9.14992 28.3671 8.74499 28.3144 8.44206 28.0838C8.13596 27.8509 7.94665 27.4422 8.05141 26.9705C8.05143 26.9704 8.05144 26.9703 8.05146 26.9702L9.69685 19.5827L9.76007 19.2989L9.54465 19.1036L4.05485 14.1263L4.05468 14.1262C3.34646 13.4847 3.77278 12.3259 4.61312 12.2559L4.61312 12.2559L4.61589 12.2557L11.8409 11.614L12.1451 11.5869L12.2599 11.304L15.0871 4.33886L15.0879 4.33696C15.4286 3.48761 16.5714 3.48761 16.9121 4.33697L16.9128 4.3385L19.7399 11.3193L19.8547 11.6026L20.1591 11.6296L27.3841 12.2713L27.3869 12.2716C28.2272 12.3415 28.6536 13.5003 27.9453 14.1418L27.9452 14.142L22.4554 19.1193L22.24 19.3146L22.3032 19.5984L23.9486 26.9859C24.0534 27.4577 23.8641 27.8665 23.558 28.0995C23.255 28.33 22.8501 28.3827 22.4753 28.1454L22.4752 28.1453L16.2674 24.2167Z" stroke="white"/>
</svg>
