<svg width="24" height="14" viewBox="0 0 24 14" fill="none" xmlns="http://www.w3.org/2000/svg">
<path d="M11.276 0.759908L0.656013 11.9059C0.478723 12.0919 0.379822 12.339 0.379822 12.5959C0.379822 12.8528 0.478723 13.0999 0.656013 13.2859L0.668013 13.2979C0.753959 13.3884 0.857412 13.4604 0.972078 13.5096C1.08674 13.5589 1.21023 13.5843 1.33501 13.5843C1.4598 13.5843 1.58328 13.5589 1.69795 13.5096C1.81261 13.4604 1.91607 13.3884 2.00201 13.2979L12.002 2.80191L21.998 13.2979C22.084 13.3884 22.1874 13.4604 22.3021 13.5096C22.4167 13.5589 22.5402 13.5843 22.665 13.5843C22.7898 13.5843 22.9133 13.5589 23.0279 13.5096C23.1426 13.4604 23.2461 13.3884 23.332 13.2979L23.344 13.2859C23.5213 13.0999 23.6202 12.8528 23.6202 12.5959C23.6202 12.339 23.5213 12.0919 23.344 11.9059L12.724 0.759908C12.6306 0.661883 12.5183 0.583845 12.3938 0.530523C12.2694 0.477202 12.1354 0.449707 12 0.449707C11.8646 0.449707 11.7306 0.477202 11.6062 0.530523C11.4817 0.583845 11.3694 0.661883 11.276 0.759908Z" fill="white"/>
</svg>
