<svg width="41" height="40" viewBox="0 0 41 40" fill="none" xmlns="http://www.w3.org/2000/svg">
<path d="M18 7.5C18 6.04131 17.4205 4.64236 16.3891 3.61091C15.3576 2.57946 13.9587 2 12.5 2C11.0413 2 9.64236 2.57946 8.61091 3.61091C7.57946 4.64236 7 6.04131 7 7.5C7 8.95869 7.57946 10.3576 8.61091 11.3891C9.64236 12.4205 11.0413 13 12.5 13C13.9587 13 15.3576 12.4205 16.3891 11.3891C17.4205 10.3576 18 8.95869 18 7.5ZM9 7.5C9 7.04037 9.09053 6.58525 9.26642 6.16061C9.44231 5.73597 9.70012 5.35013 10.0251 5.02513C10.3501 4.70012 10.736 4.44231 11.1606 4.26642C11.5852 4.09053 12.0404 4 12.5 4C12.9596 4 13.4148 4.09053 13.8394 4.26642C14.264 4.44231 14.6499 4.70012 14.9749 5.02513C15.2999 5.35013 15.5577 5.73597 15.7336 6.16061C15.9095 6.58525 16 7.04037 16 7.5C16 8.42826 15.6313 9.3185 14.9749 9.97487C14.3185 10.6313 13.4283 11 12.5 11C11.5717 11 10.6815 10.6313 10.0251 9.97487C9.36875 9.3185 9 8.42826 9 7.5ZM5.5 15H13.866C13.538 15.62 13.294 16.292 13.15 17H5.5C5.23478 17 4.98043 17.1054 4.79289 17.2929C4.60536 17.4804 4.5 17.7348 4.5 18V19C4.5 21.52 6.698 24.228 10.692 24.86C10.048 25.3 9.512 25.886 9.13 26.568C4.91 25.426 2.5 22.174 2.5 19V18C2.5 17.2044 2.81607 16.4413 3.37868 15.8787C3.94129 15.3161 4.70435 15 5.5 15ZM16.258 15C17.266 13.78 18.792 13 20.5 13C21.6977 12.9979 22.8633 13.3877 23.8188 14.1099C24.7743 14.8322 25.4673 15.8471 25.792 17C26.0815 18.029 26.0652 19.12 25.7451 20.1399C25.4249 21.1598 24.8149 22.0644 23.9893 22.7434C23.1638 23.4225 22.1584 23.8465 21.0959 23.9638C20.0335 24.0811 18.9598 23.8866 18.006 23.404C17.2716 23.0302 16.6306 22.4962 16.1304 21.8415C15.6301 21.1867 15.2833 20.4279 15.1157 19.6211C14.9481 18.8143 14.9639 17.9802 15.162 17.1803C15.36 16.3805 15.7333 15.6353 16.258 15ZM17.34 17C17.143 17.4155 17.0298 17.8657 17.0068 18.325C16.9838 18.7842 17.0515 19.2435 17.2061 19.6766C17.5181 20.5513 18.1649 21.2662 19.004 21.664C19.8431 22.0618 20.806 22.11 21.6806 21.7979C22.5553 21.4859 23.2702 20.8391 23.668 20C24.0658 19.1606 24.1139 18.1975 23.8017 17.3227C23.4894 16.4478 22.8424 15.7328 22.003 15.335C21.1636 14.9372 20.2005 14.8891 19.3257 15.2013C18.4508 15.5136 17.7358 16.1606 17.338 17M31.87 26.568C31.4898 25.8851 30.9549 25.3008 30.308 24.862C34.3 24.228 36.5 21.518 36.5 19V18C36.5 17.7348 36.3946 17.4804 36.2071 17.2929C36.0196 17.1054 35.7652 17 35.5 17H27.85C27.7094 16.3025 27.4689 15.6289 27.136 15H35.5C36.2957 15 37.0587 15.3161 37.6213 15.8787C38.1839 16.4413 38.5 17.2044 38.5 18V19C38.5 22.174 36.088 25.424 31.87 26.568ZM29.474 26.742C28.9275 26.2639 28.2261 26.0003 27.5 26H13.5C13.1057 25.9989 12.7152 26.0758 12.3507 26.2262C11.9862 26.3766 11.6551 26.5975 11.3763 26.8763C11.0975 27.1551 10.8766 27.4862 10.7262 27.8507C10.5758 28.2152 10.4989 28.6057 10.5 29V30C10.5 33.942 14.22 38 20.5 38C26.78 38 30.5 33.942 30.5 30V29C30.5 28.1 30.104 27.292 29.474 26.74M12.5 29C12.5 28.7348 12.6054 28.4804 12.7929 28.2929C12.9804 28.1054 13.2348 28 13.5 28H27.5C27.7652 28 28.0196 28.1054 28.2071 28.2929C28.3946 28.4804 28.5 28.7348 28.5 29V30C28.5 32.876 25.636 36 20.5 36C15.364 36 12.5 32.876 12.5 30V29ZM28.5 2C29.9587 2 31.3576 2.57946 32.3891 3.61091C33.4205 4.64236 34 6.04131 34 7.5C34 8.95869 33.4205 10.3576 32.3891 11.3891C31.3576 12.4205 29.9587 13 28.5 13C27.0413 13 25.6424 12.4205 24.6109 11.3891C23.5795 10.3576 23 8.95869 23 7.5C23 6.04131 23.5795 4.64236 24.6109 3.61091C25.6424 2.57946 27.0413 2 28.5 2ZM28.5 4C27.5717 4 26.6815 4.36875 26.0251 5.02513C25.3687 5.6815 25 6.57174 25 7.5C25 8.42826 25.3687 9.3185 26.0251 9.97487C26.6815 10.6313 27.5717 11 28.5 11C29.4283 11 30.3185 10.6313 30.9749 9.97487C31.6313 9.3185 32 8.42826 32 7.5C32 6.57174 31.6313 5.6815 30.9749 5.02513C30.3185 4.36875 29.4283 4 28.5 4Z" fill="white"/>
</svg>
