<svg width="41" height="40" viewBox="0 0 41 40" fill="none" xmlns="http://www.w3.org/2000/svg">
<path d="M5.60469 24.0657L6.21302 20.4957C6.93302 16.2741 7.29136 14.1624 8.71636 12.9124C10.1414 11.6641 12.188 11.6641 16.2797 11.6641H24.723C28.8147 11.6641 30.8614 11.6641 32.2864 12.9141C33.7114 14.1641 34.0697 16.2741 34.7897 20.4957L35.398 24.0657C36.3947 29.9074 36.8914 32.8274 35.3597 34.7457C33.8264 36.6641 30.993 36.6641 25.3314 36.6641H15.6714C10.008 36.6641 7.17636 36.6641 5.64302 34.7474C4.10969 32.8274 4.60969 29.9074 5.60469 24.0657Z" stroke="white" stroke-width="2" stroke-linecap="round" stroke-linejoin="round"/>
<path d="M13 15.0006L13.3583 9.98388C13.4878 8.17821 14.2964 6.4886 15.6215 5.25514C16.9466 4.02168 18.6897 3.33594 20.5 3.33594C22.3103 3.33594 24.0534 4.02168 25.3785 5.25514C26.7036 6.4886 27.5122 8.17821 27.6417 9.98388L28 15.0006" stroke="white" stroke-width="2" stroke-linecap="round" stroke-linejoin="round"/>
</svg>
