<svg width="41" height="40" viewBox="0 0 41 40" fill="none" xmlns="http://www.w3.org/2000/svg">
<path d="M14.0552 3.29793C17.8651 1.8126 22.0712 1.68871 25.9619 2.94721C29.8527 4.20571 33.1894 6.76936 35.4077 10.2046C37.6261 13.6397 38.5897 17.7356 38.1357 21.7994C37.6817 25.8632 35.8378 29.6455 32.916 32.5063M23.7952 37.2646C20.3288 37.9191 16.746 37.5256 13.5043 36.1343C10.2626 34.7431 7.50916 32.4171 5.59556 29.4536C3.68196 26.4901 2.69506 23.0235 2.7609 19.4965C2.82675 15.9695 3.94233 12.5421 5.96521 9.65209" stroke="white" stroke-width="1.5" stroke-linecap="round" stroke-linejoin="round"/>
<path d="M9.62068 7.88198C10.8458 7.88198 11.839 6.8888 11.839 5.66365C11.839 4.43849 10.8458 3.44531 9.62068 3.44531C8.39553 3.44531 7.40234 4.43849 7.40234 5.66365C7.40234 6.8888 8.39553 7.88198 9.62068 7.88198Z" stroke="white" stroke-width="1.5" stroke-linecap="round" stroke-linejoin="round"/>
<path d="M31.0143 35.7025C31.0162 34.4774 30.0245 33.4827 28.7994 33.4808C27.5742 33.4789 26.5795 34.4706 26.5776 35.6957C26.5757 36.9209 27.5674 37.9156 28.7926 37.9175C30.0177 37.9194 31.0124 36.9277 31.0143 35.7025Z" stroke="white" stroke-width="1.5" stroke-linecap="round" stroke-linejoin="round"/>
<path d="M30.8238 15.7414C32.049 15.7414 33.0421 14.7482 33.0421 13.523C33.0421 12.2979 32.049 11.3047 30.8238 11.3047C29.5986 11.3047 28.6055 12.2979 28.6055 13.523C28.6055 14.7482 29.5986 15.7414 30.8238 15.7414Z" stroke="white" stroke-width="1.5" stroke-linecap="round" stroke-linejoin="round"/>
<path d="M32.9343 17.8586C33.3964 20.7456 32.8462 23.7036 31.377 26.2313C29.9078 28.7591 27.6099 30.7012 24.8726 31.7286C22.8283 32.4962 20.6205 32.7226 18.463 32.3859C16.3055 32.0493 14.2716 31.161 12.5584 29.8071C10.8452 28.4532 9.51078 26.6797 8.68456 24.6584C7.85834 22.6372 7.5683 20.4368 7.84257 18.2705C8.11684 16.1042 8.9461 14.0455 10.25 12.2939C11.5539 10.5424 13.2881 9.15735 15.2847 8.27315C17.2813 7.38895 19.4724 7.03554 21.6457 7.24718C23.819 7.45882 25.9008 8.22834 27.6893 9.48114" stroke="white" stroke-width="1.5" stroke-linecap="round" stroke-linejoin="round"/>
<path d="M20.576 19.4021C21.7312 19.4021 22.6677 18.4656 22.6677 17.3104C22.6677 16.1552 21.7312 15.2188 20.576 15.2188C19.4208 15.2188 18.4844 16.1552 18.4844 17.3104C18.4844 18.4656 19.4208 19.4021 20.576 19.4021Z" stroke="white" stroke-width="1.5" stroke-linecap="round" stroke-linejoin="round"/>
<path d="M15.8431 25.3183C15.0081 25.3575 14.9181 24.9908 14.8906 24.59V22.9375C17.2273 20.1967 24.109 20.5425 25.9456 22.9933V24.3658C25.8706 24.685 25.9031 25.0692 25.4773 25.1783L15.8431 25.3183Z" stroke="white" stroke-width="1.5" stroke-linecap="round" stroke-linejoin="round"/>
</svg>
