<svg width="40" height="40" viewBox="0 0 40 40" fill="none" xmlns="http://www.w3.org/2000/svg">
<path d="M5.0013 16.6667H4.16797C4.16797 16.8877 4.25577 17.0996 4.41205 17.2559C4.56833 17.4122 4.78029 17.5 5.0013 17.5V16.6667ZM5.0013 23.3333V22.5C4.78029 22.5 4.56833 22.5878 4.41205 22.7441C4.25577 22.9004 4.16797 23.1123 4.16797 23.3333H5.0013ZM35.0013 16.6667V17.5C35.2223 17.5 35.4343 17.4122 35.5906 17.2559C35.7468 17.0996 35.8346 16.8877 35.8346 16.6667H35.0013ZM35.0013 23.3333H35.8346C35.8346 23.1123 35.7468 22.9004 35.5906 22.7441C35.4343 22.5878 35.2223 22.5 35.0013 22.5V23.3333ZM8.33464 9.16667H16.668V7.5H8.33464V9.16667ZM16.668 9.16667H31.668V7.5H16.668V9.16667ZM31.668 30.8333H16.668V32.5H31.668V30.8333ZM16.668 30.8333H8.33464V32.5H16.668V30.8333ZM15.8346 8.33333V31.6667H17.5013V8.33333H15.8346ZM6.76797 18.2333C7.23614 18.7021 7.4991 19.3375 7.4991 20C7.4991 20.6625 7.23614 21.2979 6.76797 21.7667L7.94797 22.9467C8.335 22.5597 8.64201 22.1004 8.85147 21.5948C9.06094 21.0892 9.16875 20.5473 9.16875 20C9.16875 19.4527 9.06094 18.9108 8.85147 18.4052C8.64201 17.8996 8.335 17.4403 7.94797 17.0533L6.76797 18.2333ZM33.2346 21.7667C32.7665 21.2979 32.5035 20.6625 32.5035 20C32.5035 19.3375 32.7665 18.7021 33.2346 18.2333L32.0546 17.0533C31.6676 17.4403 31.3606 17.8996 31.1511 18.4052C30.9417 18.9108 30.8339 19.4527 30.8339 20C30.8339 20.5473 30.9417 21.0892 31.1511 21.5948C31.3606 22.1004 31.6676 22.5597 32.0546 22.9467L33.2346 21.7667ZM5.0013 17.5C5.64297 17.5 6.2813 17.7433 6.76797 18.2333L7.94797 17.0533C7.56098 16.6664 7.10157 16.3596 6.59598 16.1502C6.09039 15.9409 5.54851 15.8332 5.0013 15.8333V17.5ZM5.83464 16.6667V11.6667H4.16797V16.6667H5.83464ZM5.83464 28.3333V23.3333H4.16797V28.3333H5.83464ZM6.76797 21.7667C6.2813 22.2567 5.64297 22.5 5.0013 22.5V24.1667C6.0663 24.1667 7.13464 23.76 7.94797 22.9467L6.76797 21.7667ZM33.2346 18.2333C33.7213 17.7433 34.3596 17.5 35.0013 17.5V15.8333C33.9363 15.8333 32.868 16.24 32.0546 17.0533L33.2346 18.2333ZM34.168 11.6667V16.6667H35.8346V11.6667H34.168ZM34.168 23.3333V28.3333H35.8346V23.3333H34.168ZM35.0013 22.5C34.3596 22.5 33.7213 22.2567 33.2346 21.7667L32.0546 22.9467C32.4416 23.3336 32.901 23.6404 33.4066 23.8498C33.9122 24.0591 34.4541 24.1668 35.0013 24.1667V22.5ZM8.33464 30.8333C7.67159 30.8333 7.03571 30.5699 6.56687 30.1011C6.09803 29.6323 5.83464 28.9964 5.83464 28.3333H4.16797C4.16797 29.4384 4.60696 30.4982 5.38836 31.2796C6.16976 32.061 7.22957 32.5 8.33464 32.5V30.8333ZM31.668 32.5C32.773 32.5 33.8328 32.061 34.6142 31.2796C35.3956 30.4982 35.8346 29.4384 35.8346 28.3333H34.168C34.168 28.9964 33.9046 29.6323 33.4357 30.1011C32.9669 30.5699 32.331 30.8333 31.668 30.8333V32.5ZM31.668 9.16667C32.331 9.16667 32.9669 9.43006 33.4357 9.8989C33.9046 10.3677 34.168 11.0036 34.168 11.6667H35.8346C35.8346 10.5616 35.3956 9.50179 34.6142 8.72039C33.8328 7.93899 32.773 7.5 31.668 7.5V9.16667ZM8.33464 7.5C7.22957 7.5 6.16976 7.93899 5.38836 8.72039C4.60696 9.50179 4.16797 10.5616 4.16797 11.6667H5.83464C5.83464 11.0036 6.09803 10.3677 6.56687 9.8989C7.03571 9.43006 7.67159 9.16667 8.33464 9.16667V7.5Z" fill="white"/>
</svg>
