<svg width="80" height="80" viewBox="0 0 80 80" fill="none" xmlns="http://www.w3.org/2000/svg">
<path d="M49.8986 46.7563L49.7769 46.823C51.6076 45.5983 53.3215 44.2074 54.8969 42.668C65.9285 31.6363 71.5902 21.708 70.7502 9.248C58.2902 8.40634 48.3619 14.0697 37.3319 25.1013C35.7912 26.6771 34.3992 28.3915 33.1735 30.223L33.2435 30.0997C25.9185 28.038 19.4104 32.6461 13.9688 39.2644L28.3535 38.738L28.3969 38.6597C27.1022 41.3971 25.9305 44.191 24.8852 47.033L32.9652 55.113C35.6519 54.1213 38.5152 52.9463 41.3369 51.6013L41.2602 51.6447L39.704 66.9114C46.3207 61.4698 51.9602 54.0797 49.8986 46.7563ZM29.9982 59.1173C26.7629 62.6467 19.8511 65.2938 15.8885 64.1097C15.5864 59.5585 17.3511 52.4997 21.0276 50.1467L22.3602 57.638L29.9982 59.1173Z" fill="#D3CAE8"/>
<path d="M53.2344 31.7656C55.9958 31.7656 58.2344 29.527 58.2344 26.7656C58.2344 24.0042 55.9958 21.7656 53.2344 21.7656C50.473 21.7656 48.2344 24.0042 48.2344 26.7656C48.2344 29.527 50.473 31.7656 53.2344 31.7656Z" fill="white"/>
</svg>
