<svg width="213" height="69" viewBox="0 0 213 69" fill="none" xmlns="http://www.w3.org/2000/svg">
<g clip-path="url(#clip0_1334_18765)">
<path d="M2.57246 0H0V69H2.57246V0Z" fill="#808080"/>
<path d="M12.8623 0H9.77539V69H12.8623V0Z" fill="#808080"/>
<path d="M20.5791 0H17.4922V69H20.5791V0Z" fill="#808080"/>
<path d="M34.4718 0H25.2109V69H34.4718V0Z" fill="#808080"/>
<path d="M39.6154 0H37.043V69H39.6154V0Z" fill="#808080"/>
<path d="M45.7893 0H43.2168V69H45.7893V0Z" fill="#808080"/>
<path d="M56.0807 0H48.3633V69H56.0807V0Z" fill="#808080"/>
<path d="M62.2541 0H59.6816V69H62.2541V0Z" fill="#808080"/>
<path d="M70.4854 0H67.3984V69H70.4854V0Z" fill="#808080"/>
<path d="M78.7178 0H75.6309V69H78.7178V0Z" fill="#808080"/>
<path d="M85.4053 0H82.3184V69H85.4053V0Z" fill="#808080"/>
<path d="M97.7532 0H92.0938V69H97.7532V0Z" fill="#808080"/>
<path d="M104.442 0H101.355V69H104.442V0Z" fill="#808080"/>
<path d="M112.675 0H109.588V69H112.675V0Z" fill="#808080"/>
<path d="M123.993 0H116.275V69H123.993V0Z" fill="#808080"/>
<path d="M134.283 0H127.08V69H134.283V0Z" fill="#808080"/>
<path d="M144.058 0H139.428V69H144.058V0Z" fill="#808080"/>
<path d="M153.833 0H150.746V69H153.833V0Z" fill="#808080"/>
<path d="M162.065 0H158.979V69H162.065V0Z" fill="#808080"/>
<path d="M170.298 0H167.211V69H170.298V0Z" fill="#808080"/>
<path d="M181.616 0H173.898V69H181.616V0Z" fill="#808080"/>
<path d="M187.274 0H184.188V69H187.274V0Z" fill="#808080"/>
<path d="M193.964 0H190.877V69H193.964V0Z" fill="#808080"/>
<path d="M206.312 0H200.652V69H206.312V0Z" fill="#808080"/>
<path d="M212.999 0H209.912V69H212.999V0Z" fill="#808080"/>
</g>
<defs>
<clipPath id="clip0_1334_18765">
<rect width="213" height="69" fill="white"/>
</clipPath>
</defs>
</svg>
