<svg width="69" height="213" viewBox="0 0 69 213" fill="none" xmlns="http://www.w3.org/2000/svg">
<g clip-path="url(#clip0_1334_18702)">
<path d="M-1.12446e-07 210.428L0 213L69 213L69 210.428L-1.12446e-07 210.428Z" fill="#808080"/>
<path d="M-1.34935e-07 200.138L0 203.225L69 203.225L69 200.138L-1.34935e-07 200.138Z" fill="#808080"/>
<path d="M-1.34935e-07 192.42L0 195.507L69 195.507L69 192.42L-1.34935e-07 192.42Z" fill="#808080"/>
<path d="M-4.04805e-07 178.529L0 187.79L69 187.79L69 178.529L-4.04805e-07 178.529Z" fill="#808080"/>
<path d="M-1.12446e-07 173.384L0 175.957L69 175.957L69 173.384L-1.12446e-07 173.384Z" fill="#808080"/>
<path d="M-1.12446e-07 167.21L0 169.783L69 169.783L69 167.21L-1.12446e-07 167.21Z" fill="#808080"/>
<path d="M-3.37338e-07 156.92L0 164.638L69 164.638L69 156.92L-3.37338e-07 156.92Z" fill="#808080"/>
<path d="M-1.12446e-07 150.746L0 153.319L69 153.319L69 150.746L-1.12446e-07 150.746Z" fill="#808080"/>
<path d="M-1.34935e-07 142.514L0 145.601L69 145.601L69 142.514L-1.34935e-07 142.514Z" fill="#808080"/>
<path d="M-1.34935e-07 134.283L0 137.37L69 137.37L69 134.283L-1.34935e-07 134.283Z" fill="#808080"/>
<path d="M-1.34935e-07 127.594L0 130.681L69 130.681L69 127.594L-1.34935e-07 127.594Z" fill="#808080"/>
<path d="M-2.47381e-07 115.246L0 120.906L69 120.906L69 115.246L-2.47381e-07 115.246Z" fill="#808080"/>
<path d="M-1.34935e-07 108.558L0 111.645L69 111.645L69 108.558L-1.34935e-07 108.558Z" fill="#808080"/>
<path d="M-1.34935e-07 100.326L0 103.413L69 103.413L69 100.326L-1.34935e-07 100.326Z" fill="#808080"/>
<path d="M-3.37338e-07 89.0072L0 96.7246L69 96.7246L69 89.0072L-3.37338e-07 89.0072Z" fill="#808080"/>
<path d="M-3.14849e-07 78.7174L0 85.9203L69 85.9203L69 78.7174L-3.14849e-07 78.7174Z" fill="#808080"/>
<path d="M-2.02403e-07 68.9421L0 73.5725L69 73.5725L69 68.9421L-2.02403e-07 68.9421Z" fill="#808080"/>
<path d="M-1.34935e-07 59.1667L0 62.2537L69 62.2537L69 59.1667L-1.34935e-07 59.1667Z" fill="#808080"/>
<path d="M-1.34935e-07 50.9348L0 54.0217L69 54.0217L69 50.9348L-1.34935e-07 50.9348Z" fill="#808080"/>
<path d="M-1.34935e-07 42.7028L0 45.7898L69 45.7898L69 42.7028L-1.34935e-07 42.7028Z" fill="#808080"/>
<path d="M-3.37338e-07 31.384L0 39.1014L69 39.1014L69 31.384L-3.37338e-07 31.384Z" fill="#808080"/>
<path d="M-1.34935e-07 25.7247L0 28.8116L69 28.8116L69 25.7247L-1.34935e-07 25.7247Z" fill="#808080"/>
<path d="M-1.34935e-07 19.0362L0 22.1232L69 22.1232L69 19.0362L-1.34935e-07 19.0362Z" fill="#808080"/>
<path d="M-2.47381e-07 6.68836L0 12.3478L69 12.3478L69 6.68836L-2.47381e-07 6.68836Z" fill="#808080"/>
<path d="M-1.34935e-07 -4.24385e-05L0 3.08691L69 3.08691L69 -4.54546e-05L-1.34935e-07 -4.24385e-05Z" fill="#808080"/>
</g>
<defs>
<clipPath id="clip0_1334_18702">
<rect width="213" height="69" fill="white" transform="translate(0 213) rotate(-90)"/>
</clipPath>
</defs>
</svg>
