<svg width="49" height="48" viewBox="0 0 49 48" fill="none" xmlns="http://www.w3.org/2000/svg">
<circle cx="24.5" cy="24" r="23.75" fill="white" stroke="#E6E6E6" stroke-width="0.5"/>
<path fill-rule="evenodd" clip-rule="evenodd" d="M34.004 24.2282C34.004 23.5264 33.9413 22.851 33.8236 22.2031H24.5V26.0322H29.8284C29.5985 27.2697 28.9011 28.3191 27.8528 29.0209V31.5047H31.0516C32.9238 29.781 34.004 27.2433 34.004 24.2282Z" fill="#3D82F0"/>
<path fill-rule="evenodd" clip-rule="evenodd" d="M24.4996 33.9018C27.1726 33.9018 29.4133 33.0152 31.0512 31.5038L27.8524 29.0189C26.9658 29.6129 25.8317 29.9638 24.4996 29.9638C21.9212 29.9638 19.7388 28.2225 18.96 25.8828H15.6523V28.448C17.2814 31.6831 20.6298 33.9018 24.4996 33.9018Z" fill="#31A752"/>
<path fill-rule="evenodd" clip-rule="evenodd" d="M18.96 25.8819C18.762 25.2879 18.6498 24.6532 18.6498 24.0009C18.6498 23.3486 18.762 22.7139 18.96 22.1199V19.5547H15.6523C14.9824 20.8912 14.5996 22.4037 14.5996 24.0009C14.5996 25.5981 14.9824 27.1106 15.6523 28.4471L18.96 25.8819Z" fill="#F9BA00"/>
<path fill-rule="evenodd" clip-rule="evenodd" d="M24.4996 18.0396C25.9527 18.0396 27.2584 18.539 28.2836 19.5202L31.1238 16.6811C29.4089 15.0828 27.1682 14.1016 24.4996 14.1016C20.6298 14.1016 17.2814 16.3203 15.6523 19.5565L18.96 22.1206C19.7388 19.7809 21.9212 18.0396 24.4996 18.0396Z" fill="#E64234"/>
</svg>
