<svg width="49" height="48" viewBox="0 0 49 48" fill="none" xmlns="http://www.w3.org/2000/svg">
<circle cx="24.5" cy="24" r="24" fill="#FAE100"/>
<path fill-rule="evenodd" clip-rule="evenodd" d="M24.5008 15.1562C19.2963 15.1562 15.0723 18.4374 15.0723 22.4728C15.0723 24.9903 16.7034 27.1871 19.1926 28.526L18.146 32.3634C18.1262 32.4397 18.1303 32.5203 18.1576 32.5942C18.185 32.6682 18.2342 32.732 18.2989 32.7771C18.3635 32.8223 18.4404 32.8466 18.5193 32.8468C18.5981 32.847 18.6751 32.8231 18.74 32.7783L23.3223 29.7328C23.7088 29.7328 24.1048 29.7988 24.5008 29.7988C29.7054 29.7988 33.9294 26.5177 33.9294 22.4728C33.9294 18.428 29.7054 15.1562 24.5008 15.1562Z" fill="black"/>
</svg>
