<svg width="20" height="20" viewBox="0 0 20 20" fill="none" xmlns="http://www.w3.org/2000/svg">
<path d="M9.54748 6.72488L2.90998 13.6911C2.79918 13.8074 2.73737 13.9618 2.73737 14.1224C2.73737 14.283 2.79918 14.4374 2.90998 14.5536L2.91748 14.5611C2.9712 14.6177 3.03586 14.6627 3.10753 14.6935C3.17919 14.7242 3.25637 14.7401 3.33436 14.7401C3.41235 14.7401 3.48953 14.7242 3.56119 14.6935C3.63286 14.6627 3.69752 14.6177 3.75123 14.5611L10.0012 8.00113L16.2487 14.5611C16.3025 14.6177 16.3671 14.6627 16.4388 14.6935C16.5104 14.7242 16.5876 14.7401 16.6656 14.7401C16.7436 14.7401 16.8208 14.7242 16.8924 14.6935C16.9641 14.6627 17.0288 14.6177 17.0825 14.5611L17.09 14.5536C17.2008 14.4374 17.2626 14.283 17.2626 14.1224C17.2626 13.9618 17.2008 13.8074 17.09 13.6911L10.4525 6.72488C10.3941 6.66362 10.3239 6.61484 10.2461 6.58152C10.1683 6.54819 10.0846 6.53101 9.99998 6.53101C9.91536 6.53101 9.83162 6.54819 9.75384 6.58152C9.67606 6.61484 9.60586 6.66362 9.54748 6.72488Z" fill="black"/>
</svg>
