<svg width="20" height="20" viewBox="0 0 20 20" fill="none" xmlns="http://www.w3.org/2000/svg">
<path d="M16.2475 6.65742L9.99997 12.7474L3.75247 6.65742C3.64086 6.54838 3.49101 6.48733 3.33497 6.48733C3.17894 6.48733 3.02909 6.54838 2.91747 6.65742C2.86343 6.71037 2.82049 6.77358 2.79118 6.84334C2.76186 6.91309 2.74677 6.988 2.74677 7.06367C2.74677 7.13933 2.76186 7.21424 2.79118 7.28399C2.82049 7.35375 2.86343 7.41696 2.91747 7.46992L9.56372 13.9499C9.68044 14.0637 9.83698 14.1274 9.99997 14.1274C10.163 14.1274 10.3195 14.0637 10.4362 13.9499L17.0825 7.47117C17.1369 7.41817 17.1802 7.35481 17.2097 7.28482C17.2392 7.21483 17.2545 7.13963 17.2545 7.06367C17.2545 6.9877 17.2392 6.9125 17.2097 6.84251C17.1802 6.77252 17.1369 6.70916 17.0825 6.65617C16.9709 6.54713 16.821 6.48608 16.665 6.48608C16.5089 6.48608 16.3591 6.54713 16.2475 6.65617V6.65742Z" fill="black"/>
</svg>
