<svg width="20" height="20" viewBox="0 0 20 20" fill="none" xmlns="http://www.w3.org/2000/svg">
<path d="M16.2475 6.65742L10 12.7474L3.7525 6.65742C3.64089 6.54838 3.49104 6.48733 3.335 6.48733C3.17897 6.48733 3.02912 6.54838 2.9175 6.65742C2.86346 6.71037 2.82052 6.77358 2.79121 6.84334C2.76189 6.91309 2.7468 6.988 2.7468 7.06367C2.7468 7.13933 2.76189 7.21424 2.79121 7.28399C2.82052 7.35375 2.86346 7.41696 2.9175 7.46992L9.56375 13.9499C9.68047 14.0637 9.83701 14.1274 10 14.1274C10.163 14.1274 10.3195 14.0637 10.4363 13.9499L17.0825 7.47117C17.1369 7.41817 17.1802 7.35481 17.2097 7.28482C17.2393 7.21483 17.2545 7.13963 17.2545 7.06367C17.2545 6.9877 17.2393 6.9125 17.2097 6.84251C17.1802 6.77252 17.1369 6.70916 17.0825 6.65617C16.9709 6.54713 16.821 6.48608 16.665 6.48608C16.509 6.48608 16.3591 6.54713 16.2475 6.65617V6.65742Z" fill="white"/>
</svg>
