<svg width="20" height="20" viewBox="0 0 20 20" fill="none" xmlns="http://www.w3.org/2000/svg">
<g clip-path="url(#clip0_717_9876)">
<path d="M14.1667 10.4168C14.2772 10.4168 14.3832 10.3729 14.4613 10.2948C14.5395 10.2167 14.5834 10.1107 14.5834 10.0002C14.5834 9.88966 14.5395 9.78367 14.4613 9.70553C14.3832 9.62739 14.2772 9.5835 14.1667 9.5835C14.0562 9.5835 13.9502 9.62739 13.8721 9.70553C13.7939 9.78367 13.75 9.88966 13.75 10.0002C13.75 10.1107 13.7939 10.2167 13.8721 10.2948C13.9502 10.3729 14.0562 10.4168 14.1667 10.4168ZM10 10.4168C10.1105 10.4168 10.2165 10.3729 10.2946 10.2948C10.3728 10.2167 10.4167 10.1107 10.4167 10.0002C10.4167 9.88966 10.3728 9.78367 10.2946 9.70553C10.2165 9.62739 10.1105 9.5835 10 9.5835C9.88951 9.5835 9.78353 9.62739 9.70539 9.70553C9.62725 9.78367 9.58335 9.88966 9.58335 10.0002C9.58335 10.1107 9.62725 10.2167 9.70539 10.2948C9.78353 10.3729 9.88951 10.4168 10 10.4168ZM5.83335 10.4168C5.94386 10.4168 6.04984 10.3729 6.12798 10.2948C6.20612 10.2167 6.25002 10.1107 6.25002 10.0002C6.25002 9.88966 6.20612 9.78367 6.12798 9.70553C6.04984 9.62739 5.94386 9.5835 5.83335 9.5835C5.72285 9.5835 5.61687 9.62739 5.53873 9.70553C5.46059 9.78367 5.41669 9.88966 5.41669 10.0002C5.41669 10.1107 5.46059 10.2167 5.53873 10.2948C5.61687 10.3729 5.72285 10.4168 5.83335 10.4168Z" fill="white" stroke="white" stroke-width="1.5" stroke-linecap="round" stroke-linejoin="round"/>
<path d="M10 18.3334C14.6025 18.3334 18.3334 14.6026 18.3334 10.0001C18.3334 5.39758 14.6025 1.66675 10 1.66675C5.39752 1.66675 1.66669 5.39758 1.66669 10.0001C1.66669 11.5176 2.07252 12.9417 2.78169 14.1667L2.08335 17.9167L5.83335 17.2184C7.09971 17.9508 8.53714 18.3354 10 18.3334Z" stroke="white" stroke-width="1.5" stroke-linecap="round" stroke-linejoin="round"/>
</g>
<defs>
<clipPath id="clip0_717_9876">
<rect width="20" height="20" fill="white"/>
</clipPath>
</defs>
</svg>
