<svg width="20" height="20" viewBox="0 0 20 20" fill="none" xmlns="http://www.w3.org/2000/svg">
<path d="M13.9062 3.28125C12.2656 3.28125 10.8391 4.02109 10 5.26094C9.16094 4.02109 7.73438 3.28125 6.09375 3.28125C4.85099 3.2827 3.65955 3.77702 2.78079 4.65579C1.90202 5.53455 1.4077 6.72599 1.40625 7.96875C1.40625 10.25 2.82812 12.6242 5.63281 15.0242C6.91801 16.1193 8.30627 17.0874 9.77813 17.9148C9.84634 17.9515 9.92257 17.9707 10 17.9707C10.0774 17.9707 10.1537 17.9515 10.2219 17.9148C11.6937 17.0874 13.082 16.1193 14.3672 15.0242C17.1719 12.6242 18.5938 10.25 18.5938 7.96875C18.5923 6.72599 18.098 5.53455 17.2192 4.65579C16.3405 3.77702 15.149 3.2827 13.9062 3.28125ZM10 16.9617C8.71797 16.2219 2.34375 12.3219 2.34375 7.96875C2.34478 6.97451 2.7402 6.02128 3.44324 5.31824C4.14628 4.6152 5.09951 4.21978 6.09375 4.21875C7.67812 4.21875 9.00859 5.06484 9.56641 6.42734C9.60172 6.51332 9.6618 6.58685 9.739 6.6386C9.81621 6.69035 9.90706 6.71798 10 6.71798C10.0929 6.71798 10.1838 6.69035 10.261 6.6386C10.3382 6.58685 10.3983 6.51332 10.4336 6.42734C10.9914 5.06484 12.3219 4.21875 13.9062 4.21875C14.9005 4.21978 15.8537 4.6152 16.5568 5.31824C17.2598 6.02128 17.6552 6.97451 17.6562 7.96875C17.6562 12.3219 11.282 16.2219 10 16.9617Z" fill="white"/>
</svg>
