<svg width="20" height="20" viewBox="0 0 20 20" fill="none" xmlns="http://www.w3.org/2000/svg">
<path d="M3.33334 16.6666H2.33334C2.33334 16.9319 2.4387 17.1862 2.62624 17.3737C2.81378 17.5613 3.06813 17.6666 3.33335 17.6666L3.33334 16.6666ZM3.33334 13.3333L2.62624 12.6262C2.4387 12.8137 2.33334 13.0681 2.33334 13.3333H3.33334ZM12.3905 4.2761L11.6834 3.56899L11.6834 3.56899L12.3905 4.2761ZM14.2761 4.2761L13.569 4.9832V4.9832L14.2761 4.2761ZM15.7238 5.72381L16.431 5.01671V5.01671L15.7238 5.72381ZM15.7239 7.60943L15.0168 6.90232L15.0168 6.90232L15.7239 7.60943ZM6.66668 16.6666L6.66668 17.6666C6.9319 17.6666 7.18625 17.5613 7.37378 17.3737L6.66668 16.6666ZM16.2807 6.40914L17.2318 6.10013V6.10013L16.2807 6.40914ZM16.2807 6.92411L15.3297 6.61509L16.2807 6.92411ZM13.0758 3.71925L12.7668 2.7682L13.0758 3.71925ZM13.5909 3.71925L13.8999 2.7682L13.5909 3.71925ZM10.7071 5.95953C10.3166 5.56901 9.68343 5.56901 9.2929 5.95953C8.90238 6.35006 8.90238 6.98322 9.2929 7.37375L10.7071 5.95953ZM12.6262 10.7071C13.0168 11.0976 13.6499 11.0976 14.0405 10.7071C14.431 10.3166 14.431 9.68339 14.0405 9.29287L12.6262 10.7071ZM4.33334 16.6666V13.3333H2.33334V16.6666H4.33334ZM4.04045 14.0404L13.0976 4.9832L11.6834 3.56899L2.62624 12.6262L4.04045 14.0404ZM13.569 4.9832L15.0167 6.43092L16.431 5.01671L14.9832 3.56899L13.569 4.9832ZM15.0168 6.90232L5.95957 15.9595L7.37378 17.3737L16.431 8.31654L15.0168 6.90232ZM6.66667 15.6666L3.33334 15.6666L3.33335 17.6666L6.66668 17.6666L6.66667 15.6666ZM15.0167 6.43092C15.1009 6.51504 15.167 6.58121 15.2233 6.63927C15.2795 6.69735 15.3159 6.73703 15.3405 6.76606C15.3906 6.82508 15.3558 6.7986 15.3297 6.71816L17.2318 6.10013C17.1438 5.82942 16.9956 5.62528 16.8652 5.4717C16.7424 5.32703 16.5843 5.17005 16.431 5.01671L15.0167 6.43092ZM16.431 8.31654C16.5843 8.16319 16.7424 8.00621 16.8652 7.86154C16.9956 7.70795 17.1438 7.50382 17.2318 7.23312L15.3297 6.61509C15.3558 6.53467 15.3906 6.50819 15.3405 6.56719C15.3159 6.59623 15.2795 6.6359 15.2233 6.69398C15.167 6.75203 15.1009 6.81821 15.0168 6.90232L16.431 8.31654ZM15.3297 6.71816C15.3188 6.68469 15.3188 6.64857 15.3297 6.61509L17.2318 7.23312C17.3514 6.86491 17.3514 6.46834 17.2318 6.10013L15.3297 6.71816ZM13.0976 4.98321C13.1818 4.89909 13.2479 4.83295 13.306 4.7767C13.364 4.72043 13.4037 4.6841 13.4328 4.65946C13.4917 4.60938 13.4653 4.64419 13.3849 4.67031L12.7668 2.7682C12.4962 2.85614 12.292 3.00436 12.1384 3.13475C11.9938 3.25756 11.8368 3.41564 11.6834 3.56899L13.0976 4.98321ZM14.9832 3.56899C14.8299 3.4157 14.673 3.25761 14.5284 3.13482C14.3748 3.00443 14.1707 2.85617 13.8999 2.7682L13.2819 4.67031C13.2014 4.64416 13.1749 4.60931 13.2339 4.65939C13.2629 4.68404 13.3026 4.72037 13.3607 4.77666C13.4187 4.83293 13.4849 4.89907 13.569 4.9832L14.9832 3.56899ZM13.3849 4.67031C13.3514 4.68119 13.3154 4.68119 13.2819 4.67031L13.8999 2.7682C13.5317 2.64856 13.135 2.64856 12.7668 2.7682L13.3849 4.67031ZM9.2929 7.37375L12.6262 10.7071L14.0405 9.29287L10.7071 5.95953L9.2929 7.37375Z" fill="white"/>
</svg>
