<svg width="20" height="20" viewBox="0 0 20 20" fill="none" xmlns="http://www.w3.org/2000/svg">
<path d="M15.2143 10.7143H11.2857V14.2857C11.2857 14.4752 11.2029 14.6568 11.0556 14.7908C10.9082 14.9247 10.7084 15 10.5 15C10.2916 15 10.0918 14.9247 9.94442 14.7908C9.79707 14.6568 9.71429 14.4752 9.71429 14.2857V10.7143H5.78571C5.57733 10.7143 5.37748 10.639 5.23013 10.5051C5.08278 10.3711 5 10.1894 5 10C5 9.81056 5.08278 9.62888 5.23013 9.49492C5.37748 9.36097 5.57733 9.28571 5.78571 9.28571H9.71429V5.71429C9.71429 5.52485 9.79707 5.34316 9.94442 5.20921C10.0918 5.07525 10.2916 5 10.5 5C10.7084 5 10.9082 5.07525 11.0556 5.20921C11.2029 5.34316 11.2857 5.52485 11.2857 5.71429V9.28571H15.2143C15.4227 9.28571 15.6225 9.36097 15.7699 9.49492C15.9172 9.62888 16 9.81056 16 10C16 10.1894 15.9172 10.3711 15.7699 10.5051C15.6225 10.639 15.4227 10.7143 15.2143 10.7143Z" fill="white"/>
</svg>
