<svg width="20" height="20" viewBox="0 0 20 20" fill="none" xmlns="http://www.w3.org/2000/svg">
<g id="pen/20px">
<path id="Vector" d="M3.33203 16.6659H2.33203C2.33203 16.9311 2.43739 17.1855 2.62493 17.373C2.81246 17.5606 3.06682 17.6659 3.33204 17.6659L3.33203 16.6659ZM3.33203 13.3326L2.62492 12.6255C2.43739 12.813 2.33203 13.0674 2.33203 13.3326H3.33203ZM12.3892 4.27536L11.6821 3.56826L11.6821 3.56826L12.3892 4.27536ZM14.2748 4.27536L13.5677 4.98247V4.98247L14.2748 4.27536ZM15.7225 5.72308L16.4296 5.01597V5.01597L15.7225 5.72308ZM15.7226 7.6087L15.0154 6.90159L15.0154 6.90159L15.7226 7.6087ZM6.66536 16.6659L6.66537 17.6659C6.93058 17.6659 7.18494 17.5605 7.37247 17.373L6.66536 16.6659ZM16.2794 6.40841L17.2305 6.0994V6.0994L16.2794 6.40841ZM16.2794 6.92337L15.3284 6.61436L16.2794 6.92337ZM13.0745 3.71852L12.7655 2.76746L13.0745 3.71852ZM13.5896 3.71852L13.8986 2.76746L13.5896 3.71852ZM10.7058 5.9588C10.3153 5.56828 9.68212 5.56828 9.29159 5.9588C8.90107 6.34933 8.90107 6.98249 9.29159 7.37302L10.7058 5.9588ZM12.6249 10.7063C13.0154 11.0969 13.6486 11.0969 14.0391 10.7063C14.4297 10.3158 14.4297 9.68266 14.0391 9.29213L12.6249 10.7063ZM4.33203 16.6659V13.3326H2.33203V16.6659H4.33203ZM4.03914 14.0397L13.0963 4.98247L11.6821 3.56826L2.62492 12.6255L4.03914 14.0397ZM13.5677 4.98247L15.0154 6.43019L16.4296 5.01597L14.9819 3.56826L13.5677 4.98247ZM15.0154 6.90159L5.95826 15.9588L7.37247 17.373L16.4297 8.3158L15.0154 6.90159ZM6.66536 15.6659L3.33203 15.6659L3.33204 17.6659L6.66537 17.6659L6.66536 15.6659ZM15.0154 6.43019C15.0995 6.51431 15.1657 6.58048 15.2219 6.63854C15.2782 6.69661 15.3146 6.73629 15.3392 6.76533C15.3893 6.82435 15.3545 6.79786 15.3284 6.71743L17.2305 6.0994C17.1425 5.82869 16.9943 5.62454 16.8639 5.47097C16.7411 5.3263 16.583 5.16931 16.4296 5.01597L15.0154 6.43019ZM16.4297 8.31581C16.583 8.16246 16.7411 8.00547 16.8639 7.86081C16.9943 7.70722 17.1425 7.50308 17.2305 7.23239L15.3284 6.61436C15.3545 6.53394 15.3893 6.50746 15.3392 6.56646C15.3146 6.5955 15.2782 6.63517 15.222 6.69325C15.1657 6.7513 15.0996 6.81747 15.0154 6.90159L16.4297 8.31581ZM15.3284 6.71743C15.3175 6.68396 15.3175 6.64783 15.3284 6.61436L17.2305 7.23239C17.3501 6.86418 17.3501 6.46761 17.2305 6.0994L15.3284 6.71743ZM13.0963 4.98247C13.1804 4.89836 13.2466 4.83222 13.3047 4.77597C13.3627 4.7197 13.4024 4.68337 13.4314 4.65873C13.4904 4.60865 13.464 4.64345 13.3836 4.66958L12.7655 2.76746C12.4948 2.85541 12.2907 3.00363 12.1371 3.13402C11.9925 3.25683 11.8355 3.41491 11.6821 3.56826L13.0963 4.98247ZM14.9819 3.56826C14.8286 3.41496 14.6717 3.25688 14.5271 3.13409C14.3735 3.0037 14.1694 2.85543 13.8986 2.76746L13.2806 4.66958C13.2001 4.64343 13.1736 4.60858 13.2326 4.65866C13.2616 4.6833 13.3013 4.71964 13.3593 4.77592C13.4174 4.83219 13.4836 4.89834 13.5677 4.98247L14.9819 3.56826ZM13.3836 4.66958C13.3501 4.68045 13.3141 4.68045 13.2806 4.66958L13.8986 2.76746C13.5304 2.64782 13.1337 2.64782 12.7655 2.76746L13.3836 4.66958ZM9.29159 7.37302L12.6249 10.7063L14.0391 9.29213L10.7058 5.9588L9.29159 7.37302Z" fill="white"/>
</g>
</svg>
