<svg width="52" height="20" viewBox="0 0 52 20" fill="none" xmlns="http://www.w3.org/2000/svg">
<mask id="path-1-inside-1_2140_49812" fill="white">
<path d="M0 0H28V20H0V0Z"/>
</mask>
<path d="M28 19H0V21H28V19Z" fill="white" mask="url(#path-1-inside-1_2140_49812)"/>
<path d="M0.478516 6.0918V4.60156H8.36719V6.0918H5.31836V14.5H3.54102V6.0918H0.478516ZM18.1562 9.55078C18.1562 12.75 16.2148 14.6367 13.6172 14.6367C11.0195 14.6367 9.07812 12.7363 9.07812 9.55078C9.07812 6.35156 11.0195 4.46484 13.6172 4.46484C16.2148 4.46484 18.1562 6.35156 18.1562 9.55078ZM16.3652 9.55078C16.3652 7.29492 15.2305 6.06445 13.6172 6.06445C12.0039 6.06445 10.8691 7.29492 10.8691 9.55078C10.8691 11.8066 12.0039 13.0371 13.6172 13.0371C15.2305 13.0371 16.3652 11.8066 16.3652 9.55078ZM19.7422 14.5V4.60156H23.4609C25.7305 4.60156 26.9473 5.98242 26.9473 7.88281C26.9473 9.7832 25.7168 11.1504 23.4336 11.1504H21.5195V14.5H19.7422ZM21.5195 9.6875H23.1875C24.5273 9.6875 25.1289 8.93555 25.1289 7.88281C25.1289 6.81641 24.5273 6.0918 23.1875 6.0918H21.5195V9.6875Z" fill="white"/>
<path d="M41.5484 6.72513L34.9109 13.6914C34.8001 13.8076 34.7383 13.962 34.7383 14.1226C34.7383 14.2832 34.8001 14.4376 34.9109 14.5539L34.9184 14.5614C34.9721 14.6179 35.0368 14.6629 35.1084 14.6937C35.1801 14.7245 35.2573 14.7403 35.3353 14.7403C35.4133 14.7403 35.4904 14.7245 35.5621 14.6937C35.6338 14.6629 35.6984 14.6179 35.7522 14.5614L42.0022 8.00138L48.2497 14.5614C48.3034 14.6179 48.368 14.6629 48.4397 14.6937C48.5114 14.7245 48.5885 14.7403 48.6665 14.7403C48.7445 14.7403 48.8217 14.7245 48.8934 14.6937C48.965 14.6629 49.0297 14.6179 49.0834 14.5614L49.0909 14.5539C49.2017 14.4376 49.2635 14.2832 49.2635 14.1226C49.2635 13.962 49.2017 13.8076 49.0909 13.6914L42.4534 6.72513C42.395 6.66386 42.3248 6.61509 42.247 6.58176C42.1693 6.54843 42.0855 6.53125 42.0009 6.53125C41.9163 6.53125 41.8325 6.54843 41.7548 6.58176C41.677 6.61509 41.6068 6.66386 41.5484 6.72513Z" fill="white"/>
</svg>
