<svg width="32" height="32" viewBox="0 0 32 32" fill="none" xmlns="http://www.w3.org/2000/svg">
<path d="M16.2673 24.2167L16.0005 24.0478L15.7333 24.2162L9.52552 28.1292L9.52462 28.1298C9.14986 28.3671 8.74493 28.3144 8.442 28.0839C8.1359 27.8509 7.94659 27.4422 8.05135 26.9705C8.05137 26.9704 8.05138 26.9704 8.0514 26.9703L9.69679 19.5828L9.76001 19.299L9.54459 19.1037L4.05479 14.1264L4.05462 14.1262C3.3464 13.4847 3.77272 12.3259 4.61306 12.256L4.61306 12.256L4.61583 12.2557L11.8408 11.614L12.145 11.587L12.2599 11.304L15.0871 4.3389L15.0878 4.33701C15.4285 3.48766 16.5714 3.48766 16.9121 4.33701L16.9127 4.33854L19.7399 11.3193L19.8546 11.6026L20.1591 11.6297L27.3841 12.2714L27.3868 12.2716C28.2272 12.3416 28.6535 13.5004 27.9453 14.1419L27.9451 14.142L22.4553 19.1193L22.2399 19.3146L22.3031 19.5984L23.9485 26.9859C24.0534 27.4577 23.8641 27.8666 23.5579 28.0995C23.255 28.3301 22.85 28.3828 22.4753 28.1454L22.4751 28.1454L16.2673 24.2167Z" stroke="white"/>
</svg>
