<svg width="20" height="20" viewBox="0 0 20 20" fill="none" xmlns="http://www.w3.org/2000/svg">
<path d="M13.3536 12.6464C13.1583 12.4512 12.8417 12.4512 12.6464 12.6464C12.4512 12.8417 12.4512 13.1583 12.6464 13.3536L13.3536 12.6464ZM18.6464 19.3536C18.8417 19.5488 19.1583 19.5488 19.3536 19.3536C19.5488 19.1583 19.5488 18.8417 19.3536 18.6464L18.6464 19.3536ZM8 14.5C4.41015 14.5 1.5 11.5899 1.5 8H0.5C0.5 12.1421 3.85786 15.5 8 15.5V14.5ZM1.5 8C1.5 4.41015 4.41015 1.5 8 1.5V0.5C3.85786 0.5 0.5 3.85786 0.5 8H1.5ZM8 1.5C11.5899 1.5 14.5 4.41015 14.5 8H15.5C15.5 3.85786 12.1421 0.5 8 0.5V1.5ZM14.5 8C14.5 11.5899 11.5899 14.5 8 14.5V15.5C12.1421 15.5 15.5 12.1421 15.5 8H14.5ZM12.6464 13.3536L18.6464 19.3536L19.3536 18.6464L13.3536 12.6464L12.6464 13.3536Z" fill="white"/>
</svg>
