<svg width="24" height="13" viewBox="0 0 24 13" fill="none" xmlns="http://www.w3.org/2000/svg">
<path d="M21.996 0.652061L12 10.3961L2.00403 0.652061C1.82544 0.477601 1.58569 0.37993 1.33603 0.37993C1.08637 0.37993 0.846618 0.477601 0.66803 0.652061C0.581555 0.736789 0.512855 0.83792 0.465955 0.949533C0.419055 1.06114 0.394897 1.18099 0.394897 1.30206C0.394897 1.42313 0.419055 1.54297 0.465955 1.65459C0.512855 1.7662 0.581555 1.86733 0.66803 1.95206L11.302 12.3201C11.4888 12.5021 11.7392 12.604 12 12.604C12.2608 12.604 12.5113 12.5021 12.698 12.3201L23.332 1.95406C23.4191 1.86927 23.4883 1.76789 23.5356 1.65591C23.5829 1.54392 23.6072 1.42361 23.6072 1.30206C23.6072 1.18051 23.5829 1.0602 23.5356 0.948214C23.4883 0.836231 23.4191 0.734852 23.332 0.65006C23.1534 0.4756 22.9137 0.37793 22.664 0.37793C22.4144 0.37793 22.1746 0.4756 21.996 0.65006V0.652061Z" fill="white"/>
</svg>
