<svg width="20" height="20" viewBox="0 0 20 20" fill="none" xmlns="http://www.w3.org/2000/svg">
<path fill-rule="evenodd" clip-rule="evenodd" d="M14.1668 9C14.3316 8.99997 14.4927 8.95806 14.6297 8.87957C14.7667 8.80108 14.8735 8.68953 14.9366 8.55903C14.9996 8.42852 15.0161 8.28492 14.984 8.14638C14.9519 8.00784 14.8725 7.88057 14.756 7.78068L10.5892 4.20914C10.4329 4.07523 10.221 4 10 4C9.77902 4 9.56709 4.07523 9.41081 4.20914L5.244 7.78068C5.12749 7.88057 5.04814 8.00784 5.016 8.14638C4.98386 8.28492 5.00037 8.42852 5.06343 8.55903C5.12649 8.68953 5.23327 8.80108 5.37029 8.87957C5.5073 8.95806 5.66839 8.99997 5.83319 9H14.1668Z" fill="#CCCCCC"/>
<path fill-rule="evenodd" clip-rule="evenodd" d="M5.83318 11C5.66839 11 5.5073 11.0419 5.37029 11.1204C5.23327 11.1989 5.12649 11.3105 5.06343 11.441C5.00037 11.5715 4.98386 11.7151 5.016 11.8536C5.04814 11.9922 5.12748 12.1194 5.244 12.2193L9.41081 15.7909C9.56709 15.9248 9.77902 16 10 16C10.221 16 10.4329 15.9248 10.5892 15.7909L14.756 12.2193C14.8725 12.1194 14.9519 11.9922 14.984 11.8536C15.0161 11.7151 14.9996 11.5715 14.9366 11.441C14.8735 11.3105 14.7667 11.1989 14.6297 11.1204C14.4927 11.0419 14.3316 11 14.1668 11L5.83318 11Z" fill="#CCCCCC"/>
</svg>
