<svg width="17" height="16" viewBox="0 0 17 16" fill="none" xmlns="http://www.w3.org/2000/svg">
<path d="M12.2724 7.46667C12.1191 7.26667 11.9324 7.09333 11.7591 6.92C11.3124 6.52 10.8057 6.23333 10.3791 5.81333C9.38572 4.84 9.16572 3.23333 9.79906 2C9.16572 2.15333 8.61239 2.5 8.13906 2.88C6.41239 4.26667 5.73239 6.71333 6.54572 8.81333C6.57239 8.88 6.59906 8.94667 6.59906 9.03333C6.59906 9.18 6.49906 9.31333 6.36572 9.36667C6.21239 9.43333 6.05239 9.39333 5.92572 9.28667C5.88789 9.25497 5.85624 9.21655 5.83239 9.17333C5.07906 8.22 4.95906 6.85333 5.46572 5.76C4.35239 6.66667 3.74572 8.2 3.83239 9.64667C3.87239 9.98 3.91239 10.3133 4.02572 10.6467C4.11906 11.0467 4.29906 11.4467 4.49906 11.8C5.21906 12.9533 6.46572 13.78 7.80572 13.9467C9.23239 14.1267 10.7591 13.8667 11.8524 12.88C13.0724 11.7733 13.4991 10 12.8724 8.48L12.7857 8.30667C12.6457 8 12.2724 7.46667 12.2724 7.46667ZM10.1657 11.6667C9.97906 11.8267 9.67239 12 9.43239 12.0667C8.68572 12.3333 7.93906 11.96 7.49906 11.52C8.29239 11.3333 8.76572 10.7467 8.90572 10.1533C9.01906 9.62 8.80572 9.18 8.71906 8.66667C8.63906 8.17333 8.65239 7.75333 8.83239 7.29333C8.95906 7.54667 9.09239 7.8 9.25239 8C9.76572 8.66667 10.5724 8.96 10.7457 9.86667C10.7724 9.96 10.7857 10.0533 10.7857 10.1533C10.8057 10.7 10.5657 11.3 10.1657 11.6667Z" fill="#666666"/>
</svg>
