<svg width="16" height="16" viewBox="0 0 16 16" fill="none" xmlns="http://www.w3.org/2000/svg">
<path d="M11.7724 7.46667C11.6191 7.26667 11.4324 7.09333 11.2591 6.92C10.8124 6.52 10.3057 6.23333 9.87906 5.81333C8.88572 4.84 8.66572 3.23333 9.29906 2C8.66572 2.15333 8.11239 2.5 7.63906 2.88C5.91239 4.26667 5.23239 6.71333 6.04572 8.81333C6.07239 8.88 6.09906 8.94667 6.09906 9.03333C6.09906 9.18 5.99906 9.31333 5.86572 9.36667C5.71239 9.43333 5.55239 9.39333 5.42572 9.28667C5.38789 9.25497 5.35624 9.21655 5.33239 9.17333C4.57906 8.22 4.45906 6.85333 4.96572 5.76C3.85239 6.66667 3.24572 8.2 3.33239 9.64667C3.37239 9.98 3.41239 10.3133 3.52572 10.6467C3.61906 11.0467 3.79906 11.4467 3.99906 11.8C4.71906 12.9533 5.96572 13.78 7.30572 13.9467C8.73239 14.1267 10.2591 13.8667 11.3524 12.88C12.5724 11.7733 12.9991 10 12.3724 8.48L12.2857 8.30667C12.1457 8 11.7724 7.46667 11.7724 7.46667ZM9.66572 11.6667C9.47906 11.8267 9.17239 12 8.93239 12.0667C8.18572 12.3333 7.43906 11.96 6.99906 11.52C7.79239 11.3333 8.26572 10.7467 8.40572 10.1533C8.51906 9.62 8.30572 9.18 8.21906 8.66667C8.13906 8.17333 8.15239 7.75333 8.33239 7.29333C8.45906 7.54667 8.59239 7.8 8.75239 8C9.26572 8.66667 10.0724 8.96 10.2457 9.86667C10.2724 9.96 10.2857 10.0533 10.2857 10.1533C10.3057 10.7 10.0657 11.3 9.66572 11.6667Z" fill="#EE4700"/>
</svg>
