<svg width="16" height="16" viewBox="0 0 16 16" fill="none" xmlns="http://www.w3.org/2000/svg">
<path d="M8.00043 11.8466L8.21391 11.9817L11.3178 13.946L11.3179 13.9461C11.4472 14.028 11.5816 14.0116 11.6881 13.9305C11.7973 13.8474 11.8669 13.7011 11.8279 13.5256L11.0052 9.83193L10.9546 9.60488L11.1269 9.44863L13.8718 6.95998L13.872 6.95985C13.9931 6.85011 14.0266 6.68978 13.9802 6.54096C13.934 6.39279 13.8233 6.29724 13.681 6.28539L13.6788 6.28521L10.0663 5.96434L9.82273 5.9427L9.73094 5.71606L8.31735 2.22568L8.31686 2.22445C8.19686 1.92531 7.80316 1.92531 7.68315 2.22445L7.68254 2.22597L6.26896 5.70852L6.17707 5.9349L5.93371 5.95651L2.32121 6.27737L2.319 6.27757L2.319 6.27757C2.17667 6.28941 2.066 6.38496 2.01979 6.53313C1.97338 6.68196 2.00689 6.84229 2.12804 6.95203L2.12818 6.95215L4.87308 9.44081L5.04541 9.59705L4.99484 9.8241L4.17216 13.5178L8.00043 11.8466ZM8.00043 11.8466L7.78671 11.9813M8.00043 11.8466L7.78671 11.9813M7.78671 11.9813L4.6828 13.9378L4.68208 13.9383M7.78671 11.9813L4.68208 13.9383M4.68208 13.9383C4.5528 14.0201 4.41846 14.0038 4.31187 13.9227M4.68208 13.9383L4.31187 13.9227M4.31187 13.9227C4.20273 13.8396 4.13319 13.6934 4.17212 13.518L4.31187 13.9227Z" stroke="white" stroke-width="0.8"/>
</svg>
