<svg width="24" height="24" viewBox="0 0 24 24" fill="none" xmlns="http://www.w3.org/2000/svg">
<path d="M1.33331 22.6666H0.333313C0.333313 22.9318 0.438671 23.1861 0.626208 23.3737C0.813746 23.5612 1.0681 23.6666 1.33332 23.6666L1.33331 22.6666ZM1.33331 17.3332L0.626205 16.6261C0.43867 16.8137 0.333313 17.068 0.333313 17.3332H1.33331ZM15.8248 2.84171L15.1177 2.1346L15.1177 2.1346L15.8248 2.84171ZM18.8418 2.84171L18.1347 3.54881V3.54881L18.8418 2.84171ZM21.1581 5.15805L21.8652 4.45095L21.1581 5.15805ZM21.1582 8.17504L20.451 7.46793V7.46793L21.1582 8.17504ZM6.66665 22.6665L6.66665 23.6665C6.93187 23.6665 7.18622 23.5612 7.37375 23.3737L6.66665 22.6665ZM22.0491 6.25458L23.0002 5.94557L22.0491 6.25458ZM22.0491 7.07852L21.0981 6.76951V6.76951L22.0491 7.07852ZM16.9213 1.95076L16.6123 0.999699V0.9997L16.9213 1.95076ZM17.7454 1.95076L18.0544 0.999699L17.7454 1.95076ZM12.7071 5.95947C12.3166 5.56895 11.6834 5.56895 11.2929 5.95947C10.9023 6.34999 10.9023 6.98316 11.2929 7.37368L12.7071 5.95947ZM16.6262 12.707C17.0167 13.0975 17.6499 13.0975 18.0404 12.707C18.4309 12.3165 18.4309 11.6833 18.0404 11.2928L16.6262 12.707ZM2.33331 22.6666V17.3332H0.333313V22.6666H2.33331ZM2.04042 18.0403L16.5319 3.54881L15.1177 2.1346L0.626205 16.6261L2.04042 18.0403ZM18.1347 3.54881L20.451 5.86516L21.8652 4.45095L19.5489 2.1346L18.1347 3.54881ZM20.451 7.46793L5.95954 21.9594L7.37375 23.3737L21.8653 8.88215L20.451 7.46793ZM6.66664 21.6665L1.33331 21.6666L1.33332 23.6666L6.66665 23.6665L6.66664 21.6665ZM20.451 5.86516C20.7267 6.14083 20.8904 6.30564 21.0022 6.43734C21.1065 6.56014 21.1057 6.58695 21.0981 6.5636L23.0002 5.94557C22.8937 5.61778 22.7114 5.36033 22.5269 5.14298C22.3499 4.93453 22.1176 4.70329 21.8652 4.45095L20.451 5.86516ZM21.8653 8.88215C22.1176 8.6298 22.3499 8.39855 22.5269 8.19011C22.7114 7.97275 22.8937 7.71531 23.0002 7.38754L21.0981 6.76951C21.1057 6.74617 21.1064 6.77299 21.0022 6.89577C20.8904 7.02746 20.7267 7.19226 20.451 7.46793L21.8653 8.88215ZM21.0981 6.5636C21.1198 6.63055 21.1198 6.70256 21.0981 6.76951L23.0002 7.38754C23.1525 6.9189 23.1525 6.4142 23.0002 5.94557L21.0981 6.5636ZM16.5319 3.54881C16.8076 3.27315 16.9724 3.10946 17.1041 2.99767C17.2268 2.89346 17.2537 2.89424 17.2303 2.90181L16.6123 0.9997C16.2845 1.10619 16.0271 1.28844 15.8098 1.47296C15.6013 1.64991 15.3701 1.88224 15.1177 2.1346L16.5319 3.54881ZM19.5489 2.1346C19.2966 1.8823 19.0654 1.64996 18.857 1.47303C18.6397 1.28851 18.3823 1.10622 18.0544 0.999699L17.4364 2.90181C17.413 2.89421 17.4398 2.89339 17.5625 2.9976C17.6942 3.10942 17.859 3.27309 18.1347 3.54881L19.5489 2.1346ZM17.2303 2.90181C17.2973 2.88006 17.3695 2.88006 17.4364 2.90181L18.0544 0.999699C17.5858 0.847431 17.0809 0.847431 16.6123 0.999699L17.2303 2.90181ZM11.2929 7.37368L16.6262 12.707L18.0404 11.2928L12.7071 5.95947L11.2929 7.37368Z" fill="white"/>
</svg>
