<svg width="36" height="36" viewBox="0 0 36 36" fill="none" xmlns="http://www.w3.org/2000/svg">
<path d="M19.68 25.7683C19.5195 25.6076 19.4293 25.3897 19.4293 25.1626C19.4293 24.9355 19.5195 24.7176 19.68 24.5569L25.36 18.8769H8.85714C8.62981 18.8769 8.4118 18.7866 8.25105 18.6258C8.09031 18.4651 8 18.2471 8 18.0197C8 17.7924 8.09031 17.5744 8.25105 17.4136C8.4118 17.2529 8.62981 17.1626 8.85714 17.1626H25.36L19.68 11.4826C19.5672 11.3778 19.4847 11.2446 19.4412 11.0969C19.3978 10.9491 19.395 10.7924 19.4331 10.6433C19.4713 10.4941 19.549 10.358 19.658 10.2493C19.767 10.1405 19.9033 10.0632 20.0526 10.0255C20.2016 9.98738 20.3581 9.99011 20.5057 10.0333C20.6533 10.0766 20.7865 10.1587 20.8914 10.2712L28.0343 17.414C28.1948 17.5747 28.285 17.7926 28.285 18.0197C28.285 18.2469 28.1948 18.4647 28.0343 18.6255L20.8914 25.7683C20.7307 25.9288 20.5129 26.019 20.2857 26.019C20.0586 26.019 19.8407 25.9288 19.68 25.7683Z" fill="white"/>
<circle cx="18" cy="18" r="17.25" stroke="white" stroke-width="1.5"/>
</svg>
