<svg width="40" height="40" viewBox="0 0 40 40" fill="none" xmlns="http://www.w3.org/2000/svg">
<path d="M21.68 27.7683C21.5195 27.6076 21.4293 27.3897 21.4293 27.1626C21.4293 26.9355 21.5195 26.7176 21.68 26.5569L27.36 20.8769H10.8571C10.6298 20.8769 10.4118 20.7866 10.2511 20.6258C10.0903 20.4651 10 20.2471 10 20.0197C10 19.7924 10.0903 19.5744 10.2511 19.4136C10.4118 19.2529 10.6298 19.1626 10.8571 19.1626H27.36L21.68 13.4826C21.5672 13.3778 21.4847 13.2446 21.4412 13.0969C21.3978 12.9491 21.395 12.7924 21.4331 12.6433C21.4713 12.4941 21.549 12.358 21.658 12.2493C21.767 12.1405 21.9033 12.0632 22.0526 12.0255C22.2016 11.9874 22.3581 11.9901 22.5057 12.0333C22.6533 12.0766 22.7865 12.1587 22.8914 12.2712L30.0343 19.414C30.1948 19.5747 30.285 19.7926 30.285 20.0197C30.285 20.2469 30.1948 20.4647 30.0343 20.6255L22.8914 27.7683C22.7307 27.9288 22.5129 28.019 22.2857 28.019C22.0586 28.019 21.8407 27.9288 21.68 27.7683Z" fill="white"/>
<circle cx="20" cy="20" r="17.25" stroke="white" stroke-width="1.5"/>
</svg>
