<svg width="28" height="24" viewBox="0 0 28 24" fill="none" xmlns="http://www.w3.org/2000/svg">
<path d="M20.25 0.25C17.625 0.25 15.3425 1.43375 14 3.4175C12.6575 1.43375 10.375 0.25 7.75 0.25C5.76159 0.252316 3.85528 1.04324 2.44926 2.44926C1.04324 3.85528 0.252316 5.76159 0.25 7.75C0.25 11.4 2.525 15.1987 7.0125 19.0387C9.06882 20.7909 11.29 22.3398 13.645 23.6637C13.7541 23.7224 13.8761 23.7531 14 23.7531C14.1239 23.7531 14.2459 23.7224 14.355 23.6637C16.71 22.3398 18.9312 20.7909 20.9875 19.0387C25.475 15.1987 27.75 11.4 27.75 7.75C27.7477 5.76159 26.9568 3.85528 25.5507 2.44926C24.1447 1.04324 22.2384 0.252316 20.25 0.25ZM14 22.1388C11.9487 20.955 1.75 14.715 1.75 7.75C1.75165 6.15921 2.38433 4.63405 3.50919 3.50919C4.63405 2.38433 6.15921 1.75165 7.75 1.75C10.285 1.75 12.4137 3.10375 13.3062 5.28375C13.3628 5.42131 13.4589 5.53896 13.5824 5.62176C13.7059 5.70457 13.8513 5.74877 14 5.74877C14.1487 5.74877 14.2941 5.70457 14.4176 5.62176C14.5411 5.53896 14.6372 5.42131 14.6938 5.28375C15.5863 3.10375 17.715 1.75 20.25 1.75C21.8408 1.75165 23.366 2.38433 24.4908 3.50919C25.6157 4.63405 26.2483 6.15921 26.25 7.75C26.25 14.715 16.0513 20.955 14 22.1388Z" fill="#999999"/>
</svg>
