<svg width="24" height="26" viewBox="0 0 24 26" fill="none" xmlns="http://www.w3.org/2000/svg">
<path d="M17.3627 5.00931C17.6578 5.5158 18.1117 5.91093 18.654 6.13355C19.1963 6.35618 19.7968 6.39391 20.3627 6.24089C20.9286 6.08788 21.4283 5.75266 21.7845 5.28709C22.1408 4.82151 22.3336 4.25153 22.3333 3.66531C22.3331 3.25588 22.2387 2.852 22.0572 2.48496C21.8758 2.11793 21.6123 1.7976 21.2871 1.5488C20.9619 1.30001 20.5838 1.12943 20.1821 1.05029C19.7804 0.971151 19.3659 0.985573 18.9706 1.09244C18.5754 1.19931 18.2101 1.39575 17.903 1.66654C17.5959 1.93733 17.3553 2.2752 17.1998 2.65395C17.0443 3.03271 16.9781 3.44219 17.0064 3.85064C17.0346 4.2591 17.1565 4.65556 17.3627 5.00931ZM17.3627 5.00931L5.97067 11.6546M5.97067 11.6546C5.67618 11.1471 5.22244 10.751 4.67983 10.5276C4.13723 10.3043 3.53608 10.2662 2.96965 10.4194C2.40321 10.5725 1.90315 10.9083 1.54702 11.3747C1.1909 11.841 0.998618 12.4119 1.00001 12.9986C0.999709 13.5849 1.19259 14.1548 1.54881 14.6204C1.90503 15.086 2.40474 15.4212 2.97064 15.5742C3.53654 15.7272 4.13709 15.6895 4.67939 15.4669C5.22169 15.2443 5.67552 14.8491 5.97067 14.3426M5.97067 11.6546C6.2087 12.0626 6.33413 12.5264 6.33413 12.9986C6.33413 13.4709 6.2087 13.9347 5.97067 14.3426M5.97067 14.3426L17.3627 20.988M17.3627 20.988C17.6572 20.4805 18.1109 20.0843 18.6535 19.861C19.1961 19.6376 19.7973 19.5996 20.3637 19.7527C20.9301 19.9059 21.4302 20.2417 21.7863 20.708C22.1425 21.1744 22.3347 21.7452 22.3333 22.332C22.3331 22.7414 22.2387 23.1453 22.0572 23.5123C21.8758 23.8794 21.6123 24.1997 21.2871 24.4485C20.9619 24.6973 20.5838 24.8679 20.1821 24.947C19.7804 25.0261 19.3659 25.0117 18.9706 24.9048C18.5754 24.798 18.2101 24.6015 17.903 24.3308C17.5959 24.06 17.3553 23.7221 17.1998 23.3433C17.0443 22.9646 16.9781 22.5551 17.0064 22.1466C17.0346 21.7382 17.1565 21.3417 17.3627 20.988Z" stroke="white" stroke-width="2" stroke-linecap="round" stroke-linejoin="round"/>
</svg>
