<svg width="24" height="24" viewBox="0 0 24 24" fill="none" xmlns="http://www.w3.org/2000/svg">
<path d="M19.497 7.98905L12 15.297L4.50299 7.98905C4.36905 7.8582 4.18924 7.78495 4.00199 7.78495C3.81475 7.78495 3.63493 7.8582 3.50099 7.98905C3.43614 8.05259 3.38461 8.12844 3.34944 8.21215C3.31426 8.29586 3.29614 8.38575 3.29614 8.47655C3.29614 8.56734 3.31426 8.65723 3.34944 8.74094C3.38461 8.82465 3.43614 8.9005 3.50099 8.96404L11.4765 16.74C11.6166 16.8766 11.8044 16.953 12 16.953C12.1956 16.953 12.3834 16.8766 12.5235 16.74L20.499 8.96555C20.5643 8.90195 20.6162 8.82592 20.6517 8.74193C20.6871 8.65794 20.7054 8.56771 20.7054 8.47655C20.7054 8.38538 20.6871 8.29515 20.6517 8.21116C20.6162 8.12717 20.5643 8.05114 20.499 7.98754C20.3651 7.8567 20.1852 7.78345 19.998 7.78345C19.8107 7.78345 19.6309 7.8567 19.497 7.98754V7.98905Z" fill="white"/>
</svg>
