<svg width="24" height="24" viewBox="0 0 24 24" fill="none" xmlns="http://www.w3.org/2000/svg">
<path d="M11.4573 8.06956L3.4923 16.4291C3.35933 16.5685 3.28516 16.7539 3.28516 16.9466C3.28516 17.1393 3.35933 17.3246 3.4923 17.4641L3.5013 17.4731C3.56576 17.5409 3.64335 17.5949 3.72935 17.6319C3.81535 17.6688 3.90796 17.6878 4.00155 17.6878C4.09514 17.6878 4.18775 17.6688 4.27375 17.6319C4.35975 17.5949 4.43734 17.5409 4.5018 17.4731L12.0018 9.60106L19.4988 17.4731C19.5633 17.5409 19.6409 17.5949 19.7269 17.6319C19.8128 17.6688 19.9055 17.6878 19.9991 17.6878C20.0926 17.6878 20.1853 17.6688 20.2713 17.6319C20.3573 17.5949 20.4348 17.5409 20.4993 17.4731L20.5083 17.4641C20.6413 17.3246 20.7154 17.1393 20.7154 16.9466C20.7154 16.7539 20.6413 16.5685 20.5083 16.4291L12.5433 8.06956C12.4733 7.99605 12.389 7.93752 12.2957 7.89753C12.2023 7.85754 12.1018 7.83691 12.0003 7.83691C11.8988 7.83691 11.7983 7.85754 11.7049 7.89753C11.6116 7.93752 11.5273 7.99605 11.4573 8.06956Z" fill="white"/>
</svg>
