<svg width="24" height="24" viewBox="0 0 24 24" fill="none" xmlns="http://www.w3.org/2000/svg">
<path d="M10.0116 7.45264L6.85301 7.45264C5.67337 7.45264 4.53164 7.91599 3.69439 8.76564C2.85714 9.61528 2.38147 10.7545 2.40055 11.971C2.38142 13.1875 2.85728 14.3269 3.69439 15.1764C4.5506 16.0453 5.65422 16.5088 6.83391 16.5088H9.99249M13.9884 16.5474H17.147C18.3266 16.5474 19.4683 16.084 20.3056 15.2344C21.1428 14.3847 21.6185 13.2455 21.5994 12.029C21.5994 10.8319 21.1238 9.69263 20.2865 8.84298C19.4493 7.99333 18.3267 7.51062 17.147 7.5106H13.9884M7.25244 11.9578L16.7282 11.9578" stroke="white" stroke-linecap="round" stroke-linejoin="round"/>
</svg>
