<svg width="24" height="24" viewBox="0 0 24 24" fill="none" xmlns="http://www.w3.org/2000/svg">
<g id="pen/24px" clip-path="url(#clip0_1600_27366)">
<path id="Vector" d="M17.0012 0.878906L14.7325 3.14766L20.8262 9.24141L23.095 6.97266C24.2669 5.80078 24.2669 3.90234 23.095 2.73047L21.2481 0.878906C20.0762 -0.292969 18.1778 -0.292969 17.0059 0.878906H17.0012ZM13.6731 4.20703L2.74655 15.1383C2.25905 15.6258 1.9028 16.2305 1.70593 16.8914L0.0465501 22.5305C-0.0706374 22.9289 0.0371751 23.3555 0.3278 23.6461C0.618425 23.9367 1.04499 24.0445 1.43874 23.932L7.0778 22.2727C7.73874 22.0758 8.34342 21.7195 8.83092 21.232L19.7669 10.3008L13.6731 4.20703Z" fill="#372759"/>
</g>
<defs>
<clipPath id="clip0_1600_27366">
<rect width="24" height="24" fill="white"/>
</clipPath>
</defs>
</svg>
