<svg width="24" height="24" viewBox="0 0 24 24" fill="none" xmlns="http://www.w3.org/2000/svg">
<path d="M4 20.0001H3C3 20.2653 3.10536 20.5197 3.2929 20.7072C3.48043 20.8948 3.73479 21.0001 4.00001 21.0001L4 20.0001ZM4 16.0001L3.29289 15.293C3.10536 15.4805 3 15.7349 3 16.0001H4ZM14.8686 5.13146L14.1615 4.42435L14.1615 4.42436L14.8686 5.13146ZM17.1313 5.13146L16.4242 5.83857V5.83857L17.1313 5.13146ZM18.8686 6.86872L19.5757 6.16162V6.16162L18.8686 6.86872ZM18.8686 9.13146L18.1615 8.42436V8.42436L18.8686 9.13146ZM8 20.0001L8.00001 21.0001C8.26522 21.0001 8.51957 20.8947 8.70711 20.7072L8 20.0001ZM19.5369 7.69112L20.4879 7.3821L19.5369 7.69112ZM19.5369 8.30908L18.5858 8.00006L19.5369 8.30908ZM15.691 4.46325L15.382 3.51219V3.51219L15.691 4.46325ZM16.3091 4.46325L16.6181 3.51219V3.51219L16.3091 4.46325ZM12.7071 7.29301C12.3166 6.90248 11.6834 6.90248 11.2929 7.29301C10.9024 7.68353 10.9024 8.3167 11.2929 8.70722L12.7071 7.29301ZM15.2929 12.7072C15.6834 13.0977 16.3166 13.0977 16.7071 12.7072C17.0976 12.3167 17.0976 11.6835 16.7071 11.293L15.2929 12.7072ZM5 20.0001V16.0001H3V20.0001H5ZM4.70711 16.7072L15.5757 5.83857L14.1615 4.42436L3.29289 15.293L4.70711 16.7072ZM16.4242 5.83857L18.1615 7.57583L19.5757 6.16162L17.8385 4.42436L16.4242 5.83857ZM18.1615 8.42436L7.29289 19.293L8.70711 20.7072L19.5757 9.83857L18.1615 8.42436ZM7.99999 19.0001L3.99999 19.0001L4.00001 21.0001L8.00001 21.0001L7.99999 19.0001ZM18.1615 7.57583C18.3712 7.7855 18.4854 7.9008 18.5611 7.98999C18.6292 8.07026 18.6058 8.06155 18.5858 8.00014L20.4879 7.3821C20.3938 7.09237 20.2342 6.87046 20.0858 6.69562C19.9449 6.5297 19.7621 6.34796 19.5757 6.16162L18.1615 7.57583ZM19.5757 9.83857C19.7621 9.65222 19.9449 9.47049 20.0858 9.30456C20.2342 9.12971 20.3938 8.90781 20.4879 8.61809L18.5858 8.00006C18.6058 7.93867 18.6292 7.92995 18.5611 8.01021C18.4854 8.09939 18.3712 8.21469 18.1615 8.42436L19.5757 9.83857ZM18.5858 8.00014L18.5858 8.00006L20.4879 8.61809C20.6184 8.2164 20.6184 7.78379 20.4879 7.3821L18.5858 8.00014ZM15.5757 5.83857C15.7854 5.62891 15.9007 5.51472 15.9899 5.43903C16.0701 5.3709 16.0614 5.39436 16 5.41431L15.382 3.51219C15.0923 3.60632 14.8704 3.76588 14.6955 3.91432C14.5296 4.05517 14.3479 4.238 14.1615 4.42435L15.5757 5.83857ZM17.8385 4.42436C17.6522 4.23806 17.4704 4.05522 17.3046 3.91439C17.1298 3.76596 16.9079 3.60634 16.6181 3.51219L16.0001 5.41431C15.9386 5.39434 15.9299 5.37083 16.0101 5.43896C16.0993 5.51468 16.2145 5.62885 16.4242 5.83857L17.8385 4.42436ZM16 5.41431H16.0001L16.6181 3.51219C16.2164 3.38168 15.7837 3.38168 15.382 3.51219L16 5.41431ZM11.2929 8.70722L15.2929 12.7072L16.7071 11.293L12.7071 7.29301L11.2929 8.70722Z" fill="white"/>
</svg>
