<svg width="24" height="24" viewBox="0 0 24 24" fill="none" xmlns="http://www.w3.org/2000/svg">
<path d="M16.272 6.00698C16.4934 6.38685 16.8337 6.68319 17.2405 6.85016C17.6472 7.01713 18.0976 7.04543 18.522 6.93067C18.9465 6.81591 19.3212 6.5645 19.5884 6.21532C19.8556 5.86613 20.0002 5.43865 20 4.99898C19.9998 4.69191 19.929 4.389 19.7929 4.11372C19.6568 3.83844 19.4592 3.5982 19.2153 3.4116C18.9714 3.22501 18.6879 3.09707 18.3866 3.03772C18.0853 2.97836 17.7744 2.98918 17.478 3.06933C17.1816 3.14948 16.9076 3.29681 16.6772 3.4999C16.4469 3.703 16.2665 3.9564 16.1498 4.24047C16.0332 4.52453 15.9836 4.83164 16.0048 5.13798C16.026 5.44432 16.1174 5.74167 16.272 6.00698ZM16.272 6.00698L7.72801 10.991M7.72801 10.991C7.50714 10.6103 7.16683 10.3132 6.75987 10.1457C6.35292 9.97821 5.90206 9.94968 5.47723 10.0645C5.05241 10.1794 4.67736 10.4313 4.41027 10.781C4.14317 11.1308 3.99896 11.5589 4.00001 11.999C3.99978 12.4386 4.14444 12.8661 4.41161 13.2153C4.67877 13.5645 5.05356 13.8159 5.47798 13.9307C5.9024 14.0454 6.35281 14.0171 6.75954 13.8502C7.16627 13.6832 7.50664 13.3869 7.72801 13.007M7.72801 10.991C7.90653 11.2969 8.0006 11.6448 8.0006 11.999C8.0006 12.3532 7.90653 12.7011 7.72801 13.007M7.72801 13.007L16.272 17.991M16.272 17.991C16.4929 17.6103 16.8332 17.3132 17.2401 17.1457C17.6471 16.9782 18.098 16.9497 18.5228 17.0645C18.9476 17.1794 19.3227 17.4313 19.5897 17.781C19.8568 18.1308 20.001 18.5589 20 18.999C19.9998 19.3061 19.929 19.609 19.7929 19.8842C19.6568 20.1595 19.4592 20.3998 19.2153 20.5864C18.9714 20.773 18.6879 20.9009 18.3866 20.9602C18.0853 21.0196 17.7744 21.0088 17.478 20.9286C17.1816 20.8485 16.9076 20.7012 16.6772 20.4981C16.4469 20.295 16.2665 20.0416 16.1498 19.7575C16.0332 19.4734 15.9836 19.1663 16.0048 18.86C16.026 18.5536 16.1174 18.2563 16.272 17.991Z" stroke="white" stroke-linecap="round" stroke-linejoin="round"/>
</svg>
