<svg width="24" height="24" viewBox="0 0 24 24" fill="none" xmlns="http://www.w3.org/2000/svg">
<path d="M12.2674 18.0568L12.0005 17.8879L11.7334 18.0563L7.07751 20.9911L7.07661 20.9916C6.84396 21.139 6.59703 21.1078 6.40723 20.9633C6.21425 20.8165 6.09319 20.5584 6.16055 20.255C6.16057 20.2549 6.16059 20.2548 6.1606 20.2547L7.39464 14.7142L7.45785 14.4304L7.24243 14.2351L3.12508 10.5021L3.12491 10.5019C2.66725 10.0874 2.95894 9.359 3.4702 9.31645L3.4702 9.31646L3.47296 9.31621L8.89171 8.83491L9.1959 8.8079L9.31076 8.52493L11.4311 3.3011L11.4319 3.2992C11.6455 2.7668 12.3545 2.7668 12.5681 3.2992L12.5687 3.30073L14.6891 8.5363L14.8038 8.81961L15.1083 8.84665L20.527 9.32796L20.5298 9.32819C21.041 9.37074 21.3327 10.0991 20.8751 10.5136L20.8749 10.5138L16.7576 14.2468L16.5421 14.4421L16.6054 14.7259L17.8394 20.2665C17.8394 20.2665 17.8394 20.2666 17.8394 20.2667C17.9068 20.5702 17.7857 20.8282 17.5928 20.9751C17.403 21.1195 17.156 21.1507 16.9234 21.0034L16.9232 21.0033L12.2674 18.0568Z" stroke="white"/>
</svg>
