<svg width="18" height="20" viewBox="0 0 18 20" fill="none" xmlns="http://www.w3.org/2000/svg">
<path d="M13.272 4.00698C13.4934 4.38685 13.8337 4.68319 14.2405 4.85016C14.6472 5.01713 15.0976 5.04543 15.522 4.93067C15.9465 4.81591 16.3212 4.5645 16.5884 4.21532C16.8556 3.86613 17.0002 3.43865 17 2.99898C16.9998 2.69191 16.929 2.389 16.7929 2.11372C16.6568 1.83844 16.4592 1.5982 16.2153 1.4116C15.9714 1.22501 15.6879 1.09707 15.3866 1.03772C15.0853 0.978363 14.7744 0.989179 14.478 1.06933C14.1816 1.14948 13.9076 1.29681 13.6772 1.4999C13.4469 1.703 13.2665 1.9564 13.1498 2.24047C13.0332 2.52453 12.9836 2.83164 13.0048 3.13798C13.026 3.44432 13.1174 3.74167 13.272 4.00698ZM13.272 4.00698L4.72801 8.99098M4.72801 8.99098C4.50714 8.61034 4.16683 8.31322 3.75987 8.14572C3.35292 7.97821 2.90206 7.94968 2.47723 8.06454C2.05241 8.17941 1.67736 8.43126 1.41027 8.78102C1.14317 9.13078 0.998963 9.5589 1.00001 9.99898C0.999782 10.4386 1.14444 10.8661 1.41161 11.2153C1.67877 11.5645 2.05356 11.8159 2.47798 11.9307C2.9024 12.0454 3.35281 12.0171 3.75954 11.8502C4.16627 11.6832 4.50664 11.3869 4.72801 11.007M4.72801 8.99098C4.90653 9.29692 5.0006 9.64477 5.0006 9.99898C5.0006 10.3532 4.90653 10.7011 4.72801 11.007M4.72801 11.007L13.272 15.991M13.272 15.991C13.4929 15.6103 13.8332 15.3132 14.2401 15.1457C14.6471 14.9782 15.098 14.9497 15.5228 15.0645C15.9476 15.1794 16.3227 15.4313 16.5897 15.781C16.8568 16.1308 17.001 16.5589 17 16.999C16.9998 17.3061 16.929 17.609 16.7929 17.8842C16.6568 18.1595 16.4592 18.3998 16.2153 18.5864C15.9714 18.773 15.6879 18.9009 15.3866 18.9602C15.0853 19.0196 14.7744 19.0088 14.478 18.9286C14.1816 18.8485 13.9076 18.7012 13.6772 18.4981C13.4469 18.295 13.2665 18.0416 13.1498 17.7575C13.0332 17.4734 12.9836 17.1663 13.0048 16.86C13.026 16.5536 13.1174 16.2563 13.272 15.991Z" stroke="white" stroke-linecap="round" stroke-linejoin="round"/>
</svg>
