<svg width="22" height="12" viewBox="0 0 22 12" fill="none" xmlns="http://www.w3.org/2000/svg">
<path d="M9.01159 1.45264L5.85301 1.45264C4.67337 1.45264 3.53164 1.91599 2.69439 2.76564C1.85714 3.61528 1.38147 4.75448 1.40055 5.97102C1.38142 7.18754 1.85728 8.3269 2.69439 9.17641C3.5506 10.0453 4.65422 10.5088 5.83391 10.5088H8.99249M12.9884 10.5474H16.147C17.3266 10.5474 18.4683 10.084 19.3056 9.23437C20.1428 8.38473 20.6185 7.24553 20.5994 6.02899C20.5994 4.83188 20.1238 3.69263 19.2865 2.84298C18.4493 1.99333 17.3267 1.51062 16.147 1.5106H12.9884M6.25244 5.95777L15.7282 5.95777" stroke="white" stroke-linecap="round" stroke-linejoin="round"/>
</svg>
